<svg width="275" height="58" viewBox="0 0 275 58" fill="none" xmlns="http://www.w3.org/2000/svg">
<g clip-path="url(#clip0_675_740)">
<path d="M68.3887 21.2531H74.3203L80.1507 36.6486L86.0486 21.2531H91.9128V43.2322H88.2056V24.9727H88.1466L81.5073 43.2322H78.7942L72.1549 24.9727H72.0959V43.2322H68.3887V21.2531Z" fill="#A9FFF5"/>
<path d="M101.358 24.7948H94.6595V21.2531H111.949V24.7948H105.25V43.2322H101.358V24.7948Z" fill="#A9FFF5"/>
<path d="M114.695 21.2531H120.627L126.458 36.6486L132.355 21.2531H138.22V43.2322H134.512V24.9727H134.453L127.814 43.2322H125.101L118.462 24.9727H118.403V43.2322H114.695V21.2531Z" fill="#A9FFF5"/>
<path d="M144.96 21.2531H153.478C154.304 21.2531 155.113 21.3547 155.922 21.5496C156.722 21.7445 157.438 22.0665 158.07 22.5156C158.694 22.9646 159.208 23.5323 159.595 24.2356C159.983 24.9389 160.185 25.7862 160.185 26.7775C160.185 28.0231 159.831 29.0483 159.132 29.8532C158.432 30.6582 157.514 31.2428 156.385 31.5902V31.6495C157.068 31.7343 157.699 31.9207 158.281 32.2257C158.871 32.5223 159.368 32.912 159.781 33.378C160.193 33.8441 160.514 34.3779 160.749 34.9964C160.985 35.6065 161.103 36.2674 161.103 36.9706C161.103 38.1738 160.867 39.1736 160.396 39.9701C159.924 40.7666 159.3 41.4105 158.525 41.8935C157.75 42.3764 156.865 42.7238 155.871 42.9357C154.877 43.139 153.857 43.2492 152.829 43.2492H144.96V21.2531ZM152.4 30.1922C153.697 30.1922 154.666 29.938 155.315 29.4296C155.964 28.9212 156.284 28.2518 156.284 27.4299C156.284 26.481 155.947 25.7692 155.281 25.3032C154.616 24.8372 153.537 24.6084 152.054 24.6084H148.844V30.1922H152.4ZM148.853 39.8769H152.433C152.931 39.8769 153.453 39.843 154.026 39.7837C154.599 39.7244 155.113 39.5803 155.585 39.3516C156.056 39.1228 156.452 38.8008 156.756 38.3772C157.059 37.9535 157.219 37.3773 157.219 36.6571C157.219 35.4963 156.84 34.6914 156.09 34.2338C155.34 33.7763 154.169 33.5475 152.585 33.5475H148.853V39.8769Z" fill="white"/>
<path d="M164.87 21.2531H168.762V43.2322H164.87V21.2531Z" fill="white"/>
<path d="M172.377 32.3362C172.377 30.5738 172.663 28.9809 173.245 27.5404C173.818 26.1 174.618 24.8799 175.637 23.8631C176.657 22.8463 177.87 22.0668 179.277 21.5161C180.684 20.9653 182.235 20.6942 183.92 20.6942C185.63 20.6772 187.189 20.923 188.613 21.4568C190.037 21.9906 191.258 22.7531 192.286 23.7699C193.314 24.7867 194.115 26.0068 194.696 27.4303C195.277 28.8538 195.564 30.4552 195.564 32.2091C195.564 33.963 195.277 35.4882 194.696 36.8947C194.123 38.3012 193.314 39.5129 192.286 40.5297C191.258 41.5464 190.028 42.3344 188.613 42.9021C187.189 43.4698 185.63 43.7664 183.92 43.7833C182.235 43.7833 180.684 43.5122 179.277 42.9614C177.87 42.4107 176.657 41.6396 175.637 40.6313C174.618 39.6315 173.818 38.4199 173.245 37.0133C172.672 35.6068 172.377 34.0478 172.377 32.3277V32.3362ZM176.455 32.0905C176.455 33.2682 176.632 34.3613 176.994 35.3526C177.356 36.344 177.862 37.2082 178.519 37.9284C179.176 38.6571 179.968 39.2248 180.878 39.64C181.797 40.0552 182.816 40.2585 183.953 40.2585C185.091 40.2585 186.119 40.0552 187.037 39.64C187.964 39.2248 188.756 38.6571 189.413 37.9284C190.07 37.2082 190.584 36.344 190.938 35.3526C191.301 34.3613 191.477 33.2682 191.477 32.0905C191.477 30.9974 191.301 29.9722 190.938 29.0147C190.576 28.0658 190.07 27.2269 189.413 26.5152C188.756 25.8034 187.964 25.2442 187.037 24.8375C186.11 24.4308 185.082 24.2359 183.953 24.2359C182.824 24.2359 181.797 24.4393 180.878 24.8375C179.96 25.2357 179.176 25.8034 178.519 26.5152C177.862 27.2269 177.348 28.0658 176.994 29.0147C176.632 29.9637 176.455 30.989 176.455 32.0905Z" fill="white"/>
<path d="M203.737 24.7948H197.038V21.2531H214.328V24.7948H207.629V43.2322H203.737V24.7948Z" fill="white"/>
<path d="M216.982 21.2531H231.457V24.7948H220.866V30.2006H230.901V33.7424H220.866V39.699H232.013V43.2407H216.982V21.2531Z" fill="white"/>
<path d="M250.852 26.414C250.052 25.5413 249.277 24.9651 248.518 24.6771C247.76 24.389 247.01 24.2449 246.252 24.2449C245.123 24.2449 244.095 24.4483 243.177 24.8465C242.258 25.2447 241.475 25.8124 240.817 26.5242C240.16 27.2359 239.646 28.0748 239.292 29.0237C238.93 29.9727 238.753 30.998 238.753 32.0995C238.753 33.2772 238.93 34.3703 239.292 35.3616C239.655 36.353 240.16 37.2172 240.817 37.9374C241.475 38.6661 242.267 39.2338 243.177 39.649C244.095 40.0642 245.115 40.2675 246.252 40.2675C247.137 40.2675 247.996 40.0557 248.83 39.632C249.664 39.2084 250.439 38.5305 251.164 37.5985L254.374 39.8947C253.388 41.2589 252.184 42.2587 250.76 42.8772C249.336 43.4958 247.828 43.8093 246.218 43.8093C244.533 43.8093 242.983 43.5381 241.576 42.9874C240.169 42.4366 238.955 41.6656 237.936 40.6573C236.916 39.6575 236.116 38.4458 235.543 37.0393C234.97 35.6327 234.675 34.0737 234.675 32.3537C234.675 30.6336 234.962 28.9983 235.543 27.5579C236.116 26.1175 236.916 24.8974 237.936 23.8806C238.955 22.8638 240.169 22.0843 241.576 21.5335C242.983 20.9828 244.533 20.7117 246.218 20.7117C247.701 20.7117 249.075 20.9743 250.338 21.4996C251.602 22.025 252.782 22.9231 253.877 24.1856L250.852 26.4225V26.414Z" fill="white"/>
<path d="M256.995 21.2531H260.887V30.0058H271.107V21.2531H275V43.2322H271.107V33.5475H260.887V43.2322H256.995V21.2531Z" fill="white"/>
<path d="M28.5 1.5C13.3043 1.5 1 13.8818 1 29.1495C1 44.4171 13.3043 56.799 28.5 56.799C43.6957 56.799 56 44.4171 56 29.1495C56 13.8818 43.6957 1.5 28.5 1.5Z" fill="url(#paint0_linear_675_740)" stroke="white" stroke-width="2"/>
<path d="M22.3421 34.327L20.668 34.0647C20.668 34.0224 21.3746 29.5977 22.6534 23.4895C23.7386 18.3119 26.3213 16.4337 28.3824 16.3914C30.8557 16.3407 32.9337 18.6757 33.918 22.635C34.9107 26.6028 35.1883 30.3422 35.2135 30.5453L33.8086 32.4911C33.8086 32.4404 33.245 26.9159 32.2775 23.0496C31.5035 19.9616 30.0229 18.0581 28.4161 18.0919C26.6494 18.1258 25.0426 20.3846 24.3191 23.8364C23.0488 29.8938 22.3589 34.2847 22.3505 34.327H22.3421Z" fill="white"/>
<path d="M16.3856 41.8157C16.0071 41.8157 15.6201 41.765 15.2415 41.6634C13.9796 41.325 12.7934 40.4452 11.7166 39.0577C8.83944 35.3522 7.82151 30.8514 7.74579 30.4876C7.70373 30.3184 7.39246 29.0409 7.28309 27.4673C7.11484 25.1492 7.44293 23.3641 8.25055 22.1628C8.89833 21.2068 9.83214 20.64 11.0099 20.4961C13.6767 20.1577 16.6464 24.7939 17.2101 25.733L18.6234 28.0172C18.6486 28.068 18.6907 28.1357 18.7496 28.2287C22.2829 34.227 24.1421 36.232 24.9329 36.8919L25.0591 36.9934C26.1612 37.9241 28.7523 40.0899 32.2856 36.655C35.0366 33.9816 39.3018 26.2744 39.3439 26.1983C39.6552 25.6568 42.3809 21.0376 45.5693 20.7922C46.4106 20.7246 47.6556 20.953 48.8082 22.3828C50.1794 24.1002 49.9691 27.0951 49.5485 29.3032C49.0353 31.9935 47.9417 34.9207 46.6125 37.1457C46.318 37.6364 43.7185 41.8327 40.446 41.8327C40.3282 41.8327 40.202 41.8326 40.0842 41.8157C38.0652 41.6211 36.4163 39.8107 35.1964 36.4266V36.4012L35.0702 36.0459C34.515 36.7566 33.9766 37.3911 33.4718 37.8818C31.5117 39.7853 29.4842 40.5467 27.4315 40.1406C25.7826 39.8191 24.5628 38.7955 23.9823 38.3048L23.8645 38.2117C22.3166 36.9342 20.0536 33.787 17.2942 29.1001C17.2437 29.0155 17.2017 28.9478 17.1764 28.8971L15.7631 26.6298C14.619 24.7516 12.3896 22.0443 11.2202 22.1882C10.5304 22.2728 10.0172 22.5773 9.65547 23.1188C8.44405 24.9039 9.05817 28.7532 9.39468 30.0815V30.1153C9.41151 30.1576 10.3621 34.54 13.0542 38.0087C14.5348 39.9122 16.2342 40.5721 17.6223 39.7853C18.9767 39.007 20.0872 36.2066 20.0956 36.1897L21.2482 37.6787C21.2145 37.7802 20.3733 40.166 18.4636 41.2658C17.8242 41.6296 17.1175 41.8157 16.3856 41.8157ZM36.7948 35.8344C37.4679 37.6956 38.612 39.9376 40.244 40.0899C41.304 40.1914 42.3893 39.4215 43.1128 38.7532C44.0045 37.941 44.7533 36.9173 45.1571 36.2405C47.5715 32.1881 49.1279 25.4792 47.4874 23.4234C46.9321 22.7296 46.3517 22.4166 45.7039 22.4674C43.7606 22.6196 41.4723 25.8853 40.8245 27.0105C40.7067 27.2304 38.5699 31.0798 36.2985 34.3454L36.7864 35.8259L36.7948 35.8344Z" fill="white"/>
<path d="M48.7088 31.2658C49.7356 31.2658 50.568 30.4287 50.568 29.3961C50.568 28.3635 49.7356 27.5264 48.7088 27.5264C47.682 27.5264 46.8496 28.3635 46.8496 29.3961C46.8496 30.4287 47.682 31.2658 48.7088 31.2658Z" fill="white"/>
<path d="M11.38 38.8789C12.7042 38.8789 13.7777 37.7994 13.7777 36.4678C13.7777 35.1361 12.7042 34.0566 11.38 34.0566C10.0559 34.0566 8.98242 35.1361 8.98242 36.4678C8.98242 37.7994 10.0559 38.8789 11.38 38.8789Z" fill="white"/>
</g>
<defs>
<linearGradient id="paint0_linear_675_740" x1="5.18" y1="57.1018" x2="39.7391" y2="16.1431" gradientUnits="userSpaceOnUse">
<stop offset="0.13" stop-color="#7E78C8"/>
<stop offset="0.34" stop-color="#6C8BC1"/>
<stop offset="0.77" stop-color="#3EBCB1"/>
<stop offset="0.81" stop-color="#3AC1B0"/>
</linearGradient>
<clipPath id="clip0_675_740">
<rect width="275" height="58" fill="white"/>
</clipPath>
</defs>
</svg>
