<svg width="1021" height="202" viewBox="0 0 1021 202" fill="none" xmlns="http://www.w3.org/2000/svg">
<g clip-path="url(#clip0_412_4534)">
<path d="M236.176 66.5957H258.708L280.857 124.855L303.261 66.5957H325.537V149.768H311.455V80.6716H311.23L286.01 149.768H275.704L250.483 80.6716H250.259V149.768H236.176V66.5957Z" fill="#7E78C8"/>
<path d="M361.418 79.9982H335.973V66.5957H401.65V79.9982H376.205V149.768H361.418V79.9982Z" fill="#7E78C8"/>
<path d="M412.082 66.5957H434.614L456.763 124.855L479.167 66.5957H501.444V149.768H487.361V80.6716H487.137L461.916 149.768H451.61L426.389 80.6716H426.165V149.768H412.082V66.5957Z" fill="#7E78C8"/>
<path d="M527.047 66.5957H559.405C562.542 66.5957 565.614 66.9805 568.687 67.7179C571.728 68.4554 574.448 69.6738 576.849 71.3732C579.217 73.0725 581.169 75.2208 582.642 77.8821C584.114 80.5433 584.882 83.7497 584.882 87.5011C584.882 92.2144 583.538 96.0941 580.881 99.1401C578.225 102.186 574.736 104.399 570.447 105.713V105.938C573.04 106.258 575.44 106.964 577.649 108.118C579.889 109.24 581.778 110.715 583.346 112.479C584.914 114.242 586.13 116.262 587.027 118.603C587.923 120.911 588.371 123.412 588.371 126.073C588.371 130.626 587.475 134.41 585.682 137.424C583.89 140.438 581.522 142.875 578.577 144.702C575.632 146.53 572.272 147.845 568.495 148.646C564.718 149.416 560.845 149.833 556.941 149.833H527.047V66.6598V66.5957ZM541.834 100.423H555.308C560.237 100.423 563.918 99.4608 566.383 97.537C568.847 95.6132 570.063 93.0801 570.063 89.97C570.063 86.3789 568.783 83.6855 566.255 81.922C563.726 80.1586 559.629 79.2928 553.996 79.2928H541.802V100.423H541.834ZM541.834 137.071H555.436C557.325 137.071 559.309 136.943 561.486 136.719C563.662 136.494 565.614 135.949 567.407 135.083C569.199 134.218 570.703 132.999 571.856 131.396C573.008 129.793 573.616 127.613 573.616 124.887C573.616 120.494 572.176 117.448 569.327 115.717C566.479 113.986 562.03 113.12 556.013 113.12H541.834V137.071Z" fill="#3AC1B0"/>
<path d="M602.68 66.5957H617.467V149.768H602.68V66.5957Z" fill="#3AC1B0"/>
<path d="M631.195 108.535C631.195 101.866 632.284 95.8378 634.492 90.387C636.668 84.9362 639.709 80.319 643.582 76.4714C647.454 72.6238 652.063 69.6739 657.408 67.5898C662.753 65.5057 668.643 64.4797 675.044 64.4797C681.541 64.4155 687.462 65.3454 692.871 67.3654C698.28 69.3854 702.921 72.2711 706.826 76.1187C710.731 79.9663 713.771 84.5835 715.98 89.9701C718.188 95.3568 719.277 101.417 719.277 108.054C719.277 114.691 718.188 120.463 715.98 125.785C713.803 131.108 710.731 135.693 706.826 139.54C702.921 143.388 698.248 146.37 692.871 148.518C687.462 150.666 681.541 151.789 675.044 151.853C668.643 151.853 662.753 150.827 657.408 148.743C652.063 146.658 647.454 143.741 643.582 139.925C639.709 136.142 636.668 131.556 634.492 126.234C632.316 120.911 631.195 115.012 631.195 108.503V108.535ZM646.686 107.605C646.686 112.062 647.358 116.198 648.735 119.95C650.111 123.701 652.031 126.971 654.528 129.697C657.024 132.454 660.033 134.603 663.49 136.174C666.978 137.745 670.851 138.514 675.172 138.514C679.493 138.514 683.398 137.745 686.886 136.174C690.407 134.603 693.415 132.454 695.912 129.697C698.408 126.971 700.361 123.701 701.705 119.95C703.081 116.198 703.754 112.062 703.754 107.605C703.754 103.469 703.081 99.5892 701.705 95.966C700.329 92.3749 698.408 89.2006 695.912 86.5073C693.415 83.8139 690.407 81.6978 686.886 80.1587C683.366 78.6197 679.461 77.8822 675.172 77.8822C670.883 77.8822 666.978 78.6517 663.49 80.1587C660.001 81.6657 657.024 83.8139 654.528 86.5073C652.031 89.2006 650.079 92.3749 648.735 95.966C647.358 99.5571 646.686 103.437 646.686 107.605Z" fill="#3AC1B0"/>
<path d="M750.324 79.9982H724.879V66.5957H790.556V79.9982H765.111V149.768H750.324V79.9982Z" fill="#3AC1B0"/>
<path d="M800.637 66.5957H855.623V79.9982H815.392V100.455H853.511V113.857H815.392V136.398H857.736V149.8H800.637V66.6278V66.5957Z" fill="#3AC1B0"/>
<path d="M929.304 86.1217C926.263 82.8192 923.318 80.6388 920.438 79.5487C917.557 78.4585 914.709 77.9134 911.828 77.9134C907.539 77.9134 903.635 78.683 900.146 80.19C896.657 81.6969 893.681 83.8452 891.184 86.5385C888.688 89.2319 886.735 92.4061 885.391 95.9973C884.015 99.5884 883.343 103.468 883.343 107.636C883.343 112.093 884.015 116.229 885.391 119.981C886.767 123.732 888.688 127.003 891.184 129.728C893.681 132.486 896.689 134.634 900.146 136.205C903.635 137.776 907.507 138.546 911.828 138.546C915.189 138.546 918.454 137.744 921.622 136.141C924.791 134.538 927.735 131.973 930.488 128.446L942.682 137.135C938.938 142.297 934.361 146.08 928.952 148.421C923.542 150.762 917.813 151.948 911.7 151.948C905.299 151.948 899.41 150.922 894.065 148.838C888.72 146.754 884.111 143.836 880.238 140.02C876.365 136.237 873.325 131.652 871.148 126.329C868.972 121.007 867.852 115.107 867.852 108.598C867.852 102.089 868.94 95.9011 871.148 90.4503C873.325 84.9995 876.365 80.3823 880.238 76.5347C884.111 72.6871 888.72 69.7373 894.065 67.6531C899.41 65.569 905.299 64.543 911.7 64.543C917.333 64.543 922.55 65.5369 927.351 67.5249C932.152 69.5128 936.633 72.9115 940.794 77.689L929.304 86.1538V86.1217Z" fill="#3AC1B0"/>
<path d="M952.637 66.5957H967.424V99.7173H1006.25V66.5957H1021.03V149.768H1006.25V113.12H967.424V149.768H952.637V66.5957Z" fill="#3AC1B0"/>
<path d="M100.82 0C45.1288 0 0 45.2095 0 101C0 156.79 45.1288 202 100.82 202C156.511 202 201.64 156.79 201.64 101C201.64 45.2095 156.511 0 100.82 0Z" fill="url(#paint0_linear_412_4534)"/>
<path d="M77.3927 120.622L71.0234 119.628C71.0234 119.468 73.712 102.699 78.5769 79.5489C82.7057 59.926 92.5317 52.8079 100.373 52.6476C109.783 52.4552 117.689 61.3047 121.433 76.3105C125.21 91.3482 126.266 105.52 126.362 106.29L121.017 113.664C121.017 113.472 118.873 92.5346 115.192 77.8816C112.248 66.1784 106.614 58.9641 100.501 59.0924C93.7799 59.2206 87.6667 67.7816 84.9142 80.8635C80.0812 103.821 77.4567 120.462 77.4247 120.622H77.3927Z" fill="white"/>
<path d="M54.7313 149C53.2911 149 51.8188 148.807 50.3785 148.422C45.5775 147.14 41.0647 143.805 36.9679 138.547C26.0217 124.503 22.149 107.445 21.8609 106.067C21.7009 105.425 20.5166 100.584 20.1006 94.6199C19.4604 85.8345 20.7087 79.0691 23.7813 74.5161C26.2458 70.8929 29.7985 68.7447 34.2793 68.1996C44.4253 66.9171 55.7235 84.4879 57.868 88.0469L63.245 96.704C63.341 96.8964 63.5011 97.1529 63.7251 97.5056C77.1677 120.239 84.2411 127.838 87.2497 130.339L87.7298 130.723C91.9226 134.25 101.781 142.459 115.223 129.441C125.689 119.309 141.916 90.099 142.076 89.8104C143.261 87.7583 153.631 70.2517 165.761 69.3218C168.962 69.0653 173.699 69.931 178.084 75.3498C183.301 81.8586 182.5 93.2091 180.9 101.578C178.948 111.774 174.787 122.868 169.73 131.301C168.61 133.16 158.72 149.064 146.269 149.064C145.821 149.064 145.341 149.064 144.893 149C137.212 148.262 130.938 141.401 126.297 128.575V128.479L125.817 127.132C123.705 129.826 121.656 132.23 119.736 134.09C112.279 141.304 104.565 144.19 96.7556 142.651C90.4823 141.433 85.8414 137.553 83.633 135.693L83.1849 135.341C77.2958 130.499 68.6861 118.571 58.188 100.808C57.996 100.488 57.836 100.231 57.7399 100.039L52.3629 91.4456C48.01 84.3275 39.5284 74.0672 35.0795 74.6123C32.455 74.9329 30.5026 76.0872 29.1263 78.1393C24.5174 84.9047 26.8539 99.4936 28.1341 104.528V104.656C28.1981 104.816 31.8149 121.425 42.0569 134.571C47.69 141.785 54.1552 144.286 59.4363 141.304C64.5893 138.355 68.8141 127.742 68.8461 127.677L73.231 133.321C73.1029 133.705 69.9023 142.747 62.6369 146.915C60.2044 148.294 57.5159 149 54.7313 149ZM132.379 126.331C134.939 133.385 139.292 141.882 145.501 142.459C149.534 142.843 153.663 139.926 156.415 137.393C159.808 134.315 162.656 130.435 164.193 127.87C173.379 112.511 179.3 87.085 173.059 79.2936C170.946 76.6644 168.738 75.478 166.273 75.6704C158.88 76.2475 150.174 88.624 147.71 92.8885C147.261 93.7221 139.132 108.311 130.49 120.688L132.347 126.299L132.379 126.331Z" fill="white"/>
<path d="M177.698 109.016C181.605 109.016 184.772 105.843 184.772 101.93C184.772 98.0163 181.605 94.8438 177.698 94.8438C173.792 94.8438 170.625 98.0163 170.625 101.93C170.625 105.843 173.792 109.016 177.698 109.016Z" fill="white"/>
<path d="M35.6882 137.874C40.726 137.874 44.81 133.783 44.81 128.736C44.81 123.689 40.726 119.598 35.6882 119.598C30.6504 119.598 26.5664 123.689 26.5664 128.736C26.5664 133.783 30.6504 137.874 35.6882 137.874Z" fill="white"/>
</g>
<defs>
<linearGradient id="paint0_linear_412_4534" x1="12.0984" y1="206.938" x2="142.99" y2="51.2112" gradientUnits="userSpaceOnUse">
<stop offset="0.13" stop-color="#7E78C8"/>
<stop offset="0.34" stop-color="#6C8BC1"/>
<stop offset="0.77" stop-color="#3EBCB1"/>
<stop offset="0.81" stop-color="#3AC1B0"/>
</linearGradient>
<clipPath id="clip0_412_4534">
<rect width="1021" height="202" fill="white"/>
</clipPath>
</defs>
</svg>
