<svg width="263" height="206" viewBox="0 0 263 206" fill="none" xmlns="http://www.w3.org/2000/svg">
<g opacity="0.2">
<path d="M117.103 143.157C115.403 142.997 113.704 142.837 112.165 140.98C49.7361 93.9917 14.1309 16.9816 21.4824 -61.1243C26.117 -110.365 45.8836 -156.469 80.143 -192.643C83.8608 -195.719 89.1178 -196.937 92.1963 -193.221C95.2749 -189.506 96.4946 -184.252 92.7768 -181.176C62.2352 -148.077 42.7883 -105.37 38.4733 -59.5251C31.6013 13.487 62.7484 83.2255 121.939 128.196C125.177 130.213 126.237 137.165 124.219 140.401C124.059 142.099 120.501 143.477 117.103 143.157Z" fill="#158061"/>
<path d="M226.381 184.278C221.283 183.799 218.205 180.083 218.684 174.989C219.164 169.895 222.882 166.819 227.979 167.299C312.933 175.295 396.206 128.317 434.141 53.0893C436.319 48.1553 441.576 46.9372 444.815 48.955C449.752 51.1327 450.972 56.3865 448.953 59.6225C408.52 143.18 318.132 192.914 226.381 184.278Z" fill="#158061"/>
<path d="M232.116 123.142C177.745 118.025 129.33 86.0597 102.901 39.0343C99.8225 35.3186 102.001 30.3847 105.719 27.3086C109.437 24.2325 114.374 26.4102 117.453 30.126C140.803 73.4356 184.441 101.525 232.015 106.003C311.872 113.519 384.37 53.5356 391.881 -26.2683C395.716 -67.0192 382.241 -105.973 356.074 -137.557C352.995 -141.273 353.475 -146.367 357.192 -149.443C360.91 -152.519 366.007 -152.039 369.086 -148.324C398.492 -114.722 413.027 -68.8159 408.872 -24.6691C402.101 65.4825 322.168 131.618 232.116 123.142Z" fill="#158061"/>
<path d="M238.679 53.5337C187.706 48.7361 149.224 2.28909 154.019 -48.6496C158.813 -99.5882 205.286 -138.039 256.259 -133.241C307.231 -128.444 345.713 -81.9969 340.919 -31.0583C336.124 19.8804 289.652 58.3313 238.679 53.5337ZM254.66 -116.262C212.183 -120.26 175.005 -89.4992 171.01 -47.0504C167.014 -4.60147 197.8 32.5561 240.277 36.5541C282.754 40.5522 319.932 9.79141 323.928 -32.6575C327.923 -75.1064 297.138 -112.264 254.66 -116.262Z" fill="#158061"/>
</g>
</svg>
