<svg width="276" height="84" viewBox="0 0 276 84" fill="none" xmlns="http://www.w3.org/2000/svg">
<path d="M270.003 2.50537H6.31862C3.82996 2.50537 1.8125 4.52621 1.8125 7.01903V76.9808C1.8125 79.4736 3.82996 81.4944 6.31862 81.4944H270.003C272.492 81.4944 274.509 79.4736 274.509 76.9808V7.01903C274.509 4.52621 272.492 2.50537 270.003 2.50537Z" fill="white" stroke="#0B4739" stroke-width="2"/>
<path d="M65.8067 40.1007C65.7545 33.8524 70.9161 30.8068 71.1564 30.6707C68.2308 26.4006 63.6961 25.8145 62.0975 25.7726C58.2838 25.375 54.5955 28.0543 52.6521 28.0543C50.6773 28.0543 47.6889 25.8145 44.4604 25.8773C40.3123 25.9401 36.4359 28.3473 34.3149 32.0732C29.9265 39.682 33.1969 50.8596 37.4077 57.0137C39.5077 60.0279 41.9632 63.3875 45.1814 63.2723C48.3263 63.1467 49.507 61.2628 53.2998 61.2628C57.0613 61.2628 58.1688 63.2723 61.4497 63.1991C64.8246 63.1467 66.9561 60.1744 68.9831 57.1393C71.4176 53.6855 72.3894 50.284 72.4312 50.1166C72.3476 50.0642 65.8694 47.5839 65.8067 40.1007ZM59.6108 21.7223C61.3034 19.5977 62.4632 16.7196 62.1393 13.7891C59.6944 13.8937 56.6224 15.4845 54.8671 17.5568C53.3103 19.3884 51.9102 22.3816 52.2759 25.197C55.0134 25.3958 57.8449 23.805 59.6108 21.7223Z" fill="#0B4739"/>
<path d="M111.383 62.8226H106.985L104.571 55.2452H96.2017L93.903 62.8226H89.6191L97.9153 37.0134H103.035L111.383 62.8226ZM103.85 52.0635L101.666 45.3235C101.436 44.6327 100.998 43.0105 100.371 40.4567H100.298C100.047 41.5557 99.6288 43.1779 99.075 45.3235L96.9331 52.0635H103.85ZM132.678 53.2881C132.678 56.4489 131.821 58.9502 130.107 60.7923C128.571 62.425 126.659 63.2413 124.381 63.2413C121.915 63.2413 120.15 62.3621 119.074 60.6038V70.3687H114.946V50.3262C114.946 48.3377 114.895 46.2967 114.79 44.214H118.425L118.656 47.1655H118.728C120.108 44.9467 122.198 43.8268 124.997 43.8268C127.192 43.8268 129.02 44.6955 130.484 46.4328C131.946 48.1703 132.678 50.4623 132.678 53.2881ZM128.477 53.445C128.477 51.6345 128.069 50.1379 127.255 48.9657C126.366 47.7411 125.165 47.134 123.66 47.134C122.647 47.134 121.717 47.4794 120.891 48.1493C120.067 48.8296 119.522 49.7192 119.272 50.8076C119.157 51.2158 119.094 51.6449 119.084 52.0635V55.172C119.084 56.5221 119.502 57.6628 120.328 58.6048C121.153 59.5363 122.23 60.0072 123.555 60.0072C125.112 60.0072 126.324 59.4002 127.192 58.2072C128.038 56.9931 128.477 55.4126 128.477 53.445ZM154.055 53.2881C154.055 56.4489 153.199 58.9502 151.484 60.7923C149.949 62.425 148.037 63.2413 145.759 63.2413C143.293 63.2413 141.527 62.3621 140.451 60.6038V70.3687H136.324V50.3262C136.324 48.3377 136.272 46.2967 136.167 44.214H139.803L140.033 47.1655H140.106C141.485 44.9467 143.575 43.8268 146.376 43.8268C148.57 43.8268 150.398 44.6955 151.861 46.4328C153.314 48.1703 154.055 50.4623 154.055 53.2881ZM149.844 53.445C149.844 51.6345 149.437 50.1379 148.622 48.9657C147.734 47.7411 146.532 47.134 145.028 47.134C144.014 47.134 143.084 47.4794 142.248 48.1493C141.423 48.8296 140.879 49.7192 140.629 50.8076C140.503 51.3204 140.431 51.7391 140.431 52.0635V55.172C140.431 56.5221 140.849 57.6628 141.673 58.6048C142.499 59.5363 143.575 60.0072 144.913 60.0072C146.469 60.0072 147.681 59.4002 148.549 58.2072C149.416 56.9931 149.844 55.4126 149.844 53.445ZM177.951 55.5906C177.951 57.7885 177.188 59.5782 175.663 60.9492C173.991 62.4563 171.64 63.2099 168.641 63.2099C165.872 63.2099 163.648 62.6761 161.964 61.5981L162.915 58.1548C164.723 59.2328 166.718 59.7665 168.881 59.7665C170.438 59.7665 171.65 59.4107 172.518 58.7094C173.385 58.0082 173.823 57.0663 173.823 55.8941C173.823 54.8475 173.458 53.9684 172.748 53.2462C172.037 52.5345 170.856 51.8647 169.196 51.2577C164.682 49.5726 162.424 47.1027 162.424 43.8687C162.424 41.7545 163.218 40.0172 164.817 38.6671C166.405 37.3169 168.516 36.6367 171.149 36.6367C173.49 36.6367 175.443 37.0449 177 37.8612L175.966 41.2313C174.503 40.4359 172.863 40.0486 171.013 40.0486C169.561 40.0486 168.412 40.4044 167.596 41.1161C166.907 41.7545 166.562 42.5291 166.562 43.4501C166.562 44.4652 166.96 45.313 167.754 45.9723C168.443 46.5794 169.686 47.2492 171.494 47.9609C173.709 48.861 175.339 49.8971 176.384 51.1007C177.428 52.3043 177.951 53.8009 177.951 55.5906ZM191.638 47.3225H187.083V56.3546C187.083 58.6572 187.887 59.7979 189.497 59.7979C190.238 59.7979 190.844 59.7352 191.335 59.6096L191.45 62.7494C190.636 63.0529 189.57 63.2099 188.243 63.2099C186.613 63.2099 185.338 62.7075 184.418 61.7133C183.499 60.7189 183.04 59.0443 183.04 56.7001V47.3225H180.334V44.2245H183.04V40.8126L187.094 39.5881V44.2245H191.649L191.638 47.3225ZM212.128 53.3718C212.128 56.2291 211.313 58.5839 209.683 60.4155C207.98 62.3097 205.713 63.2517 202.881 63.2517C200.154 63.2517 197.981 62.3412 196.361 60.5411C194.742 58.7304 193.938 56.4384 193.938 53.6858C193.938 50.7972 194.774 48.4423 196.445 46.6003C198.117 44.7583 200.363 43.8477 203.194 43.8477C205.922 43.8477 208.116 44.7583 209.767 46.5689C211.334 48.3167 212.128 50.5879 212.128 53.3718ZM207.845 53.466C207.845 51.7601 207.479 50.2948 206.736 49.0808C205.87 47.605 204.636 46.862 203.028 46.862C201.376 46.862 200.102 47.605 199.245 49.0808C198.504 50.3052 198.137 51.7914 198.137 53.5497C198.137 55.2557 198.504 56.7209 199.245 57.9455C200.134 59.4211 201.387 60.1643 202.996 60.1643C204.574 60.1643 205.807 59.4107 206.706 57.9141C207.468 56.6477 207.845 55.172 207.845 53.466ZM225.555 47.8562C225.126 47.783 224.687 47.7411 224.248 47.7411C222.796 47.7411 221.679 48.2854 220.884 49.3843C220.195 50.3576 219.85 51.5821 219.85 53.0579V62.8226H215.723V50.075C215.723 48.1179 215.691 46.1712 215.608 44.214H219.202L219.348 47.7725H219.463C219.902 46.5479 220.581 45.5642 221.532 44.8211C222.388 44.1722 223.444 43.8268 224.52 43.8268C224.907 43.8268 225.241 43.8582 225.555 43.9001V47.8562ZM244.018 52.6392C244.028 53.2672 243.975 53.8952 243.871 54.5126H231.479C231.521 56.3546 232.127 57.757 233.276 58.7304C234.32 59.5991 235.669 60.0282 237.331 60.0282C239.169 60.0282 240.841 59.7352 242.346 59.1491L242.994 62.0167C241.237 62.7807 239.159 63.168 236.766 63.168C233.882 63.168 231.625 62.3202 229.974 60.6248C228.334 58.9292 227.508 56.6477 227.508 53.7904C227.508 50.9855 228.271 48.6516 229.808 46.7887C231.406 44.8001 233.579 43.8059 236.307 43.8059C238.981 43.8059 241.008 44.8001 242.388 46.7887C243.463 48.3691 244.018 50.3157 244.018 52.6392ZM240.078 51.5716C240.11 50.3472 239.838 49.2901 239.274 48.39C238.563 47.2387 237.456 46.6631 235.982 46.6631C234.635 46.6631 233.537 47.2283 232.69 48.3481C232.001 49.2377 231.594 50.3157 231.468 51.5613L240.078 51.5716Z" fill="#0B4739"/>
<path d="M95.0104 27.8984C93.8611 27.8984 92.8685 27.846 92.043 27.7518V15.2659C93.2028 15.0879 94.3731 14.9937 95.5433 15.0042C100.276 15.0042 102.46 17.3381 102.46 21.1372C102.45 25.5225 99.8795 27.8984 95.0104 27.8984ZM95.7104 16.6055C95.0731 16.6055 94.5298 16.6474 94.0805 16.7415V26.2238C94.3208 26.2657 94.791 26.276 95.4493 26.276C98.5524 26.276 100.318 24.5074 100.318 21.2001C100.308 18.2382 98.7092 16.6055 95.7104 16.6055ZM109.252 27.9925C106.587 27.9925 104.853 25.9935 104.853 23.2828C104.853 20.4569 106.619 18.4475 109.398 18.4475C112.031 18.4475 113.797 20.3523 113.797 23.1362C113.797 25.9935 111.979 27.9925 109.252 27.9925ZM109.325 19.9337C107.862 19.9337 106.922 21.3047 106.922 23.2304C106.922 25.1143 107.883 26.4854 109.304 26.4854C110.735 26.4854 111.686 25.0201 111.686 23.1886C111.697 21.3257 110.756 19.9337 109.325 19.9337ZM129.01 18.6359L126.157 27.7832H124.298L123.117 23.8165C122.824 22.8432 122.574 21.8594 122.386 20.8652H122.344C122.198 21.8594 121.915 22.8642 121.612 23.8165L120.358 27.7832H118.478L115.792 18.6359H117.882L118.916 22.9793C119.157 24.0154 119.366 24.9887 119.533 25.9203H119.575C119.722 25.1457 119.972 24.1933 120.328 23.0003L121.623 18.6359H123.274L124.517 22.906C124.82 23.9421 125.06 24.9574 125.248 25.9203H125.3C125.436 24.9783 125.635 23.984 125.918 22.906L127.025 18.6359H129.01ZM139.532 27.7832H137.505V22.5293C137.505 20.907 136.888 20.1011 135.665 20.1011C134.465 20.1011 133.639 21.1372 133.639 22.3408V27.7832H131.612V21.2523C131.612 20.4465 131.591 19.5779 131.539 18.6359H133.326L133.419 20.0488H133.471C134.015 19.0755 135.122 18.4475 136.366 18.4475C138.278 18.4475 139.542 19.9128 139.542 22.3094L139.532 27.7832ZM145.121 27.7832H143.095V14.439H145.121V27.7832ZM152.53 27.9925C149.865 27.9925 148.13 25.9935 148.13 23.2828C148.13 20.4569 149.897 18.4475 152.676 18.4475C155.309 18.4475 157.075 20.3523 157.075 23.1362C157.075 25.9935 155.247 27.9925 152.53 27.9925ZM152.603 19.9337C151.139 19.9337 150.2 21.3047 150.2 23.2304C150.2 25.1143 151.161 26.4854 152.581 26.4854C154.013 26.4854 154.964 25.0201 154.964 23.1886C154.964 21.3257 154.035 19.9337 152.603 19.9337ZM165.078 27.7832L164.932 26.7261H164.88C164.263 27.5738 163.354 27.982 162.205 27.982C160.564 27.982 159.405 26.8308 159.405 25.2923C159.405 23.0316 161.358 21.8699 164.743 21.8699V21.7025C164.743 20.4988 164.107 19.8918 162.853 19.8918C161.954 19.8918 161.16 20.1221 160.47 20.5721L160.063 19.2325C160.91 18.7091 161.964 18.4371 163.198 18.4371C165.579 18.4371 166.791 19.693 166.791 22.2152V25.5853C166.791 26.5064 166.833 27.2284 166.928 27.7727L165.078 27.7832ZM164.796 23.2304C162.539 23.2304 161.411 23.7747 161.411 25.0725C161.411 26.0354 161.996 26.5064 162.8 26.5064C163.835 26.5064 164.796 25.7213 164.796 24.6433V23.2304ZM176.624 27.7832L176.53 26.3179H176.477C175.893 27.4274 174.91 27.9925 173.542 27.9925C171.337 27.9925 169.707 26.0563 169.707 23.3247C169.707 20.4674 171.4 18.4475 173.708 18.4475C174.932 18.4475 175.798 18.8557 176.279 19.693H176.321V14.439H178.347V25.3132C178.347 26.1923 178.369 27.0296 178.421 27.7727H176.624V27.7832ZM176.331 22.4037C176.331 21.1267 175.485 20.0279 174.189 20.0279C172.684 20.0279 171.765 21.3675 171.765 23.2409C171.765 25.083 172.716 26.3494 174.148 26.3494C175.422 26.3494 176.331 25.2399 176.331 23.9213V22.4037ZM191.242 27.9925C188.577 27.9925 186.843 25.9935 186.843 23.2828C186.843 20.4569 188.608 18.4475 191.388 18.4475C194.021 18.4475 195.786 20.3523 195.786 23.1362C195.786 25.9935 193.969 27.9925 191.242 27.9925ZM191.315 19.9337C189.852 19.9337 188.911 21.3047 188.911 23.2304C188.911 25.1143 189.873 26.4854 191.293 26.4854C192.725 26.4854 193.676 25.0201 193.676 23.1886C193.686 21.3257 192.746 19.9337 191.315 19.9337ZM206.706 27.7832H204.678V22.5293C204.678 20.907 204.062 20.1011 202.839 20.1011C201.637 20.1011 200.813 21.1372 200.813 22.3408V27.7832H198.785V21.2523C198.785 20.4465 198.765 19.5779 198.712 18.6359H200.498L200.593 20.0488H200.645C201.189 19.0755 202.296 18.4475 203.539 18.4475C205.452 18.4475 206.716 19.9128 206.716 22.3094V27.7832H206.706ZM220.351 20.1639H218.115V24.6015C218.115 25.7318 218.501 26.297 219.296 26.297C219.651 26.297 219.954 26.2552 220.195 26.2028L220.246 27.7413C219.85 27.8879 219.327 27.9716 218.669 27.9716C217.07 27.9716 216.109 27.0925 216.109 24.7689V20.1535H214.771V18.6254H216.109V16.9508L218.105 16.3438V18.6254H220.341L220.351 20.1639ZM231.103 27.7832H229.075V22.5711C229.075 20.9384 228.459 20.1116 227.237 20.1116C226.181 20.1116 225.21 20.8233 225.21 22.2781V27.7936H223.182V14.439H225.21V19.9337H225.252C225.889 18.9394 226.819 18.4475 227.999 18.4475C229.932 18.4475 231.113 19.9545 231.113 22.3408L231.103 27.7832ZM242.104 23.7014H236.013C236.055 25.4284 237.194 26.4121 238.887 26.4121C239.785 26.4121 240.621 26.2657 241.352 25.983L241.666 27.3959C240.799 27.7727 239.785 27.9611 238.604 27.9611C235.752 27.9611 234.06 26.1504 234.06 23.356C234.06 20.5511 235.794 18.4475 238.375 18.4475C240.704 18.4475 242.168 20.1744 242.168 22.7909C242.188 23.084 242.168 23.3979 242.104 23.7014ZM240.245 22.2467C240.245 20.8337 239.535 19.8394 238.239 19.8394C237.069 19.8394 236.15 20.8547 236.023 22.2467H240.245Z" fill="#0B4739"/>
</svg>
