<svg width="1440" height="153" viewBox="0 0 1440 153" fill="none" xmlns="http://www.w3.org/2000/svg">
<path d="M1446.74 79.8756L1436.52 89.631C1432.86 93.1282 1429.05 94.6054 1424.2 94.517C1419.34 94.3992 1416.7 92.7326 1415.6 89.1133L1406.96 60.428C1406.66 59.4371 1406.36 58.5266 1406.07 57.6898C1404.7 53.7537 1400.38 53.9943 1399.53 58.0757C1399.37 58.8145 1399.23 59.6085 1399.08 60.4616L1392.06 102.257C1389.96 114.756 1386.02 114.781 1382.53 114.798C1379.05 114.853 1375.11 114.853 1370.78 102.383L1362.77 79.3579C1362.53 78.6608 1362.23 78.1004 1361.91 77.651C1361.02 76.3951 1359.28 76.3012 1357.94 77.0693C1357.11 77.5479 1356.14 78.2207 1355.07 79.1643L1351.63 82.2113C1349.24 84.324 1345.81 85.3972 1341.4 85.3972C1337.01 85.3972 1333.55 84.324 1331.16 82.2113L1325.61 77.2831C1325.5 77.1896 1325.4 77.0994 1325.29 77.0126C1323.28 75.3375 1319.44 75.2372 1317.96 77.3925L1309.37 89.753C1306.98 93.1998 1303.73 94.7359 1298.87 94.7359C1294.01 94.7359 1290.77 93.1998 1288.38 89.753L1283.18 82.2787C1282.55 81.3736 1281.94 80.645 1281.36 80.059C1279.92 78.5945 1277.57 78.6793 1276.44 80.3966C1276.08 80.9351 1275.73 81.5783 1275.4 82.346L1270.62 93.4523C1265.76 104.744 1261.82 104.702 1258.37 104.672C1254.9 104.639 1250.97 104.601 1249.36 93.2461L1243.27 50.3485C1243.11 49.2265 1242.95 48.1649 1242.79 47.1606C1241.94 41.8707 1236.73 41.8708 1235.88 47.1607C1235.71 48.1662 1235.55 49.2291 1235.39 50.3528L1228.23 101.158C1225.3 121.902 1221.82 121.902 1217.78 121.906C1213.84 121.881 1210.26 121.91 1206.92 101.175L1199.76 56.8802C1199.61 55.9223 1199.45 55.0229 1199.29 54.1785C1198.41 49.5133 1193.64 49.4095 1192.53 54.0257C1192.31 54.9105 1192.1 55.8564 1191.89 56.8676L1184.86 90.2959C1182.22 102.879 1178.28 102.892 1174.79 102.905C1171.45 102.905 1167.36 102.934 1163.58 90.3632L1156.16 65.7307C1155.94 65.0171 1155.71 64.3799 1155.48 63.811C1154.41 61.2503 1151.27 61.0591 1149.7 63.3513C1149.25 64.0156 1148.79 64.7838 1148.31 65.6718L1142.27 77.0222C1140.27 80.7973 1137.3 82.4217 1132.35 82.4596C1127.2 82.4638 1124.06 80.9151 1121.25 77.1779L1117.57 72.2834C1116.88 71.3625 1116.2 70.6348 1115.58 70.0605C1114.15 68.7337 1111.92 68.8235 1110.83 70.443C1110.47 70.9694 1110.12 71.6038 1109.79 72.3676L1108.56 75.263C1103.87 86.2894 1099.94 86.2557 1096.49 86.2263C1093.02 86.1968 1089.09 86.1631 1087.32 75.0779L1079.07 23.9274C1078.87 22.7061 1078.67 21.551 1078.48 20.4586C1077.5 15.0315 1072.2 15.1813 1071.55 20.6577C1071.43 21.6961 1071.31 22.7906 1071.19 23.9443L1060.74 128.055C1058.5 150.326 1055.19 150.335 1050.98 150.347C1046.8 150.356 1043.45 150.373 1039.42 128.114L1029.52 73.3818C1029.36 72.467 1029.19 71.6132 1029.01 70.8163C1028.08 66.4795 1023.55 66.3604 1022.36 70.6355C1022.13 71.4789 1021.89 72.3871 1021.66 73.365L1017.53 90.5105C1015.62 98.4394 1012.01 99.1296 1008.15 99.1675C1004.5 99.218 1000.49 98.5909 996.313 90.7167L990.388 79.56C989.965 78.7625 989.5 78.1422 989.044 77.6611C987.982 76.5389 986.259 76.4958 984.991 77.379C984.281 77.8733 983.482 78.5482 982.655 79.4674C979.959 82.447 976.407 83.7432 971.773 83.7853C967.043 83.7516 963.863 82.3376 961.78 79.3243L955.807 70.7347C955.164 69.8115 954.537 69.0682 953.951 68.4704C952.495 66.9853 950.121 67.0899 949.01 68.8484C948.667 69.3928 948.327 70.0404 948.009 70.8104L942.035 85.334C937.628 96.0826 933.576 96.0658 930.234 96.0279C926.941 96.0027 922.856 95.9732 920.773 85.1783L912.572 42.5165C912.368 41.4538 912.163 40.4555 911.959 39.5177C910.894 34.6338 905.946 34.7492 905.129 39.6807C904.981 40.5747 904.836 41.523 904.694 42.5291L894.668 113.519C892.472 129.145 888.84 129.162 884.997 129.178C881.155 129.162 877.523 129.216 873.374 113.607L864.43 79.964C864.256 79.3137 864.03 78.774 863.781 78.3267C862.969 76.8718 861.066 76.7318 859.636 77.5855C858.786 78.0924 857.797 78.7897 856.713 79.7451L853.936 82.2071C851.546 84.3198 848.108 85.393 843.7 85.393C839.309 85.393 835.854 84.3198 833.465 82.2071L828.638 77.9355C827.582 76.9991 826.603 76.3765 825.796 75.964C824.706 75.407 823.376 75.4311 822.445 76.2262C821.943 76.6556 821.415 77.2516 820.953 78.0743L816.126 86.7607C813.091 92.2318 809.232 92.9894 805.519 92.9894H805.503C801.789 92.9851 797.931 92.2276 795.025 86.7397L788.793 75.0189C788.335 74.1612 787.876 73.4353 787.431 72.8212C786.025 70.8792 783.282 70.9341 782.037 72.9837C781.681 73.5697 781.324 74.2527 780.979 75.0484L773.521 92.2613C768.403 104.041 764.464 104.02 761.009 103.961C757.538 103.923 753.599 103.881 752.259 92.0298L745.995 36.5698C745.831 35.1128 745.666 33.7322 745.5 32.424C744.761 26.5837 739.225 26.6184 738.556 32.4672C738.408 33.7638 738.261 35.1315 738.116 36.574L730.641 111.09C727.671 140.579 724.523 140.428 720.051 140.365C715.708 140.365 712.56 140.146 709.331 111.103L702.599 50.9251C702.446 49.557 702.292 48.2639 702.136 47.0417C701.417 41.4035 696.044 41.3686 695.244 46.9959C695.069 48.2304 694.894 49.5373 694.72 50.9209L688.311 101.996C685.259 126.279 681.934 126.279 677.72 126.283C677.704 126.283 677.672 126.283 677.655 126.283C673.474 126.283 670.164 126.14 667 102.004L663.384 74.4592C663.247 73.421 663.107 72.4424 662.964 71.52C662.19 66.5236 657.217 66.3881 656.142 71.3285C655.931 72.3018 655.718 73.3384 655.505 74.4424L649.516 105.59C646.626 120.61 643.01 120.614 639.167 120.618C635.438 120.614 631.709 120.631 628.221 105.615L621.263 75.5703C621.072 74.7449 620.875 73.9829 620.676 73.2796C619.623 69.5639 615.51 69.4525 614.209 73.0889C613.94 73.8387 613.67 74.6567 613.401 75.5492L606.362 98.9234C603.86 107.244 600.179 107.946 596.32 107.963C596.272 107.963 596.239 107.963 596.191 107.963C592.381 107.963 588.652 107.21 585.132 99.016L576.446 78.815C576.122 78.0602 575.732 77.4778 575.337 77.0295C574.406 75.9747 572.841 75.9183 571.609 76.5962C570.787 77.0481 569.811 77.7005 568.746 78.6383L567.293 79.9303C564.08 82.7795 560.528 84.0841 555.685 83.9747C550.987 83.8821 548.065 82.468 546.499 79.5263L538.636 64.7417C538.172 63.8705 537.71 63.1218 537.264 62.4786C535.757 60.3101 532.739 60.448 531.601 62.8311C531.328 63.4048 531.06 64.0551 530.806 64.7922L521.83 90.6073C519.086 98.5067 515.405 99.1717 511.546 99.1801C511.514 99.1801 511.498 99.1801 511.465 99.1801C507.639 99.1801 503.942 98.4899 500.616 90.662L495.596 78.8487C495.277 78.0924 494.892 77.5085 494.499 77.059C493.573 75.9999 492.006 75.9431 490.774 76.6209C489.949 77.0745 488.971 77.7298 487.911 78.6719L485.328 80.9572C482.486 83.4697 478.983 84.7112 474.317 84.6102C469.748 84.5555 466.584 83.2761 464.647 80.7047L456.236 69.611C455.572 68.726 454.896 68.0768 454.279 67.6023C453.147 66.7324 451.577 66.7375 450.445 67.6078C449.83 68.0813 449.153 68.7286 448.486 69.611L444.095 75.4482C440.075 80.772 436.039 81.4832 432.374 81.4159C428.661 81.3696 424.964 80.5784 423.01 75.1704L414.858 52.5959C414.542 51.7261 414.227 50.9405 413.915 50.2311C412.524 47.0652 408.744 47.1916 407.652 50.4724C407.434 51.1258 407.22 51.8415 407.011 52.6254L396.776 91.1208C394.726 98.814 390.964 99.4873 387.267 99.521C383.554 99.5799 379.631 98.9486 375.578 91.3102L369.33 79.5684C368.902 78.7603 368.43 78.1342 367.968 77.6502C366.905 76.5373 365.19 76.5003 363.928 77.3802C363.219 77.8747 362.418 78.5506 361.581 79.4716L359.854 81.3738C357.723 83.7264 354.381 84.9342 349.925 84.9679C349.86 84.9679 349.796 84.9679 349.747 84.9679C345.372 84.9679 341.837 83.8106 339.254 81.5211L337.93 80.3427C336.837 79.3747 335.842 78.6554 334.982 78.1221C333.454 77.1749 331.382 77.3797 330.675 79.0328C330.488 79.4698 330.327 79.9824 330.213 80.5826L320.526 130.942C316.474 152.027 313.019 152.014 308.951 152.001C304.914 151.989 301.427 151.98 299.216 130.879L288.609 29.933C288.487 28.7773 288.361 27.6849 288.232 26.6524C287.568 21.327 282.394 21.1608 281.37 26.4289C281.158 27.5219 280.944 28.683 280.73 29.9162L273.901 69.2491C271.56 82.7458 267.766 82.7626 264.118 82.7795C260.437 82.7921 256.675 82.8089 252.623 69.3416L249.765 59.8388C249.484 58.9082 249.205 58.0496 248.928 57.2576C247.56 53.3419 243.218 53.566 242.332 57.6177C242.179 58.3181 242.03 59.0685 241.887 59.8725L232.652 111.974C229.762 128.248 226.13 128.253 222.288 128.257C218.607 128.274 214.813 128.269 211.358 111.999L204.642 80.4016C204.511 79.7922 204.333 79.275 204.13 78.8366C203.387 77.2335 201.357 77.0444 199.851 77.9679C198.994 78.4934 198.001 79.205 196.909 80.166L194.6 82.2113C192.211 84.324 188.772 85.3972 184.365 85.3972C179.957 85.3972 176.518 84.324 174.145 82.2113L168.834 77.5062C167.813 76.6028 166.822 75.9907 165.998 75.5888C164.998 75.1007 163.809 75.1177 162.907 75.7702C162.326 76.1908 161.704 76.79 161.165 77.624L153.254 89.875C149.929 95.0347 145.909 95.767 142.421 95.767C142.373 95.767 142.341 95.767 142.292 95.767C138.757 95.7502 134.801 95.0263 132.17 89.774L125.664 76.8118C125.225 75.9353 124.787 75.1801 124.359 74.5298C122.899 72.3099 119.87 72.4212 118.688 74.8009C118.392 75.3977 118.099 76.0769 117.818 76.8497L113.119 89.8961C108.502 102.661 104.757 102.602 101.076 102.602C97.4272 102.572 93.6494 102.547 91.8412 89.7362L83.9789 34.0573C83.7674 32.5547 83.5566 31.1364 83.3471 29.7979C82.4497 24.0624 77.0022 24.2221 76.4548 30.0015C76.3332 31.2851 76.2149 32.6413 76.1005 34.0742L69.6912 114.057C67.4309 142.103 64.2666 142.111 59.8754 142.12C55.3873 142.128 52.3198 142.12 48.3645 114.099L41.4708 65.2341C41.3463 64.3542 41.2166 63.5285 41.0829 62.7537C40.312 58.2849 35.7225 58.0334 34.4093 62.3739C34.1454 63.2463 33.8781 64.1854 33.6085 65.1962L25.9077 94.1972C24.3578 100.047 21.1451 101.289 16.8184 101.347C12.3141 101.44 8.77849 100.266 4.77469 94.5002L-6.09047 78.9118C-6.41336 78.4363 -5.20252 77.9818 -3.37821 77.8934C-1.50547 77.8134 0.205837 78.1248 0.528724 78.6004L11.3616 94.1972C12.0246 95.1505 12.6636 95.9406 13.2623 96.5948C14.8976 98.3815 17.6641 98.149 18.5766 95.9055C18.7932 95.3729 18.996 94.7675 19.1755 94.0794L26.8763 65.0784C31.0254 49.4816 34.5772 49.4395 38.5003 49.5068C42.3426 49.5237 45.9751 49.5363 48.1707 65.1668L55.0644 114.032C55.2759 115.535 55.4867 116.953 55.6961 118.291C56.5936 124.027 62.0411 123.867 62.5885 118.088C62.7101 116.804 62.8284 115.448 62.9428 114.015L69.3683 34.0321C71.6285 5.98647 74.7928 5.97806 79.1679 5.96964C83.5269 5.94859 86.7235 5.94858 90.6788 33.9858L98.5411 89.6646C98.645 90.401 98.7565 91.0901 98.8739 91.735C99.5974 95.7078 103.844 96.0857 105.398 92.3584C105.733 91.556 106.074 90.6799 106.42 89.7235L111.134 76.6813C113.717 69.5479 117.511 68.9376 121.192 68.9208C121.24 68.9208 121.289 68.9208 121.337 68.9208C124.969 68.9208 128.796 69.5815 132.315 76.5845L138.821 89.5468C139.227 90.3535 139.65 91.0194 140.066 91.5684C141.278 93.1687 143.567 93.2152 144.939 91.749C145.475 91.1762 146.039 90.4655 146.603 89.5847L154.514 77.3336C156.273 74.6107 159.357 73.2514 163.974 73.1798C168.608 73.1209 172.272 74.3624 175.259 77.0096L180.571 81.7147C181.757 82.7603 182.984 83.2821 183.699 83.5064C184.071 83.6231 184.466 83.6352 184.842 83.5337C185.613 83.326 186.901 82.8053 188.126 81.7147L190.435 79.6694C194.39 76.1594 198.297 74.6444 203.173 74.8085C208.016 74.9558 210.535 76.6519 211.309 80.3049L218.026 111.902C218.239 112.901 218.453 113.833 218.667 114.702C219.773 119.193 224.447 119.122 225.387 114.593C225.562 113.751 225.735 112.852 225.904 111.89L235.139 59.7883C237.512 46.3841 241.306 46.3673 244.954 46.3504C248.587 46.3378 252.397 46.3168 256.433 59.6999L259.291 69.2028C259.583 70.1686 259.872 71.0572 260.158 71.8746C261.526 75.7934 265.837 75.5684 266.703 71.5093C266.858 70.7843 267.009 70.0055 267.153 69.1691L273.982 29.8362C277.873 7.40894 281.182 7.38792 285.412 7.42159C289.626 7.43001 292.935 7.4384 295.309 29.8825L305.915 130.828C306.029 131.908 306.146 132.929 306.268 133.894C306.92 139.093 312.005 139.302 313.103 134.179C313.327 133.138 313.552 132.031 313.778 130.853L323.464 80.4942C324.175 76.7865 326.661 75.0695 331.52 74.9179C336.348 74.758 340.335 76.2899 344.355 79.8461L345.679 81.0245C345.706 81.048 345.732 81.0711 345.758 81.0941C347.68 82.7609 351.597 82.8594 353.299 80.9698L355.027 79.0676C358.029 75.747 361.42 74.2698 366.376 74.3498C371.219 74.4087 374.174 75.9448 375.982 79.3243L382.23 91.0661C382.717 91.9854 383.195 92.7818 383.655 93.4715C385.246 95.8576 388.473 95.6147 389.458 92.9213C389.668 92.347 389.871 91.7072 390.06 90.9945L400.295 52.4991C403.056 42.1083 407.141 42.0956 410.434 42.0872C413.663 42.0451 417.812 42.0577 421.557 52.4318L429.71 75.0063C429.975 75.733 430.266 76.3501 430.567 76.8738C431.606 78.6858 433.995 78.8265 435.505 77.384C436.131 76.7864 436.807 76.0395 437.508 75.1073L441.899 69.2701C444.273 66.1095 447.598 64.6365 452.361 64.6365C457.124 64.6365 460.449 66.1095 462.822 69.2701L471.185 80.368C472.465 82.0769 476.341 82.3784 478.047 81.0949C478.3 80.9042 478.559 80.6934 478.822 80.4606L481.405 78.1753C484.811 75.1494 488.557 73.7943 493.351 73.8995C498.082 74.0089 500.907 75.5198 502.231 78.6551L507.252 90.4685C507.618 91.3306 507.986 92.0889 508.348 92.7556C509.742 95.3248 513.033 95.2462 514.246 92.5864C514.534 91.9556 514.82 91.2459 515.098 90.4474L524.074 64.6323C526.512 57.6125 530.306 57.0022 533.987 56.9812C537.716 56.9728 541.558 57.5199 545.272 64.506L553.134 79.2906C553.564 80.1043 554.066 80.7005 554.55 81.1352C555.486 81.9741 556.858 82.0007 557.974 81.4229C558.785 81.0029 559.764 80.3744 560.819 79.4379L562.272 78.1459C565.678 75.1284 569.537 73.7816 574.202 73.8826C578.933 73.9921 581.758 75.4987 583.114 78.6214L591.8 98.8224C592.176 99.6975 592.551 100.472 592.918 101.157C594.369 103.862 597.803 103.727 598.929 100.87C599.174 100.248 599.414 99.5572 599.646 98.7887L606.685 75.4146C610.333 63.3277 614.337 63.3571 617.744 63.3445C621.215 63.3529 625.154 63.3613 627.963 75.465L634.921 105.51C635.145 106.477 635.37 107.376 635.594 108.212C636.743 112.483 641.268 112.404 642.255 108.093C642.439 107.287 642.621 106.424 642.8 105.497L648.789 74.3498C652.519 54.9232 655.764 54.9358 660.042 54.9358C664.078 54.9443 667.549 54.9527 670.1 74.3961L673.716 101.941C673.881 103.184 674.046 104.36 674.213 105.472C675.033 110.95 680.35 110.934 681.138 105.452C681.297 104.345 681.455 103.174 681.611 101.937L688.02 50.862C691.281 24.8365 694.591 24.6134 698.756 24.6134C703.277 24.6302 706.392 24.3946 709.347 50.8704L716.063 111.057C716.226 112.52 716.39 113.907 716.555 115.221C717.29 121.074 722.824 121.043 723.497 115.183C723.646 113.879 723.795 112.503 723.941 111.052L731.416 36.5362C734.354 7.21535 737.47 7.43419 742.007 7.45103C746.334 7.45103 749.482 7.6825 752.743 36.5277L759.007 91.9877C759.083 92.6577 759.168 93.285 759.26 93.8723C759.854 97.6667 763.909 98.1776 765.621 94.7395C766.021 93.9368 766.432 93.0505 766.853 92.0719L774.312 74.859C776.83 69.0723 780.221 67.8771 784.563 67.8644C788.745 67.835 792.41 69.0218 795.477 74.7917L801.709 86.5124C802.158 87.3586 802.617 88.0582 803.064 88.6361C804.358 90.3063 806.774 90.3106 808.097 88.6639C808.564 88.0824 809.047 87.3766 809.523 86.5209L814.35 77.8344C815.964 74.9306 818.902 73.5375 823.584 73.4492C828.234 73.4113 831.947 74.6318 835.128 77.4473L839.955 81.7189C841.128 82.753 842.349 83.2748 843.067 83.5031C843.45 83.6251 843.856 83.639 844.244 83.5332C845.017 83.3223 846.295 82.8012 847.51 81.7189L850.287 79.2569C854.113 75.8733 858.036 74.4508 862.815 74.5602C867.658 74.6991 870.225 76.332 871.162 79.8503L880.106 113.493C880.376 114.508 880.644 115.451 880.909 116.326C882.222 120.664 886.818 120.416 887.583 115.948C887.716 115.171 887.845 114.343 887.968 113.46L897.994 42.4702C900.657 23.5739 904.129 23.5697 908.165 23.5613C912.265 23.5444 915.672 23.5402 919.304 42.4323L927.506 85.0942C927.641 85.8005 927.785 86.4541 927.936 87.0589C928.801 90.5384 932.686 90.8465 934.259 87.6244C934.621 86.8835 934.991 86.0626 935.368 85.1531L941.341 70.6252C943.569 65.192 947.315 64.4135 951.028 64.3756C954.741 64.405 958.697 65.0532 962.426 70.4232L968.399 79.0128C969.007 79.8848 969.644 80.5128 970.229 80.9628C971.256 81.754 972.667 81.7599 973.763 81.0669C974.47 80.6203 975.284 79.9781 976.116 79.0591C979.119 75.7386 982.445 74.2614 987.466 74.3414C992.309 74.4003 995.263 75.9364 997.072 79.3158L1003 90.4727C1003.5 91.4104 1003.98 92.2246 1004.45 92.9315C1006.08 95.3808 1009.36 95.1024 1010.29 92.3154C1010.48 91.7393 1010.67 91.1006 1010.84 90.3927L1014.98 73.2472C1018.61 58.1638 1022.31 58.1848 1026.08 58.1722C1029.93 58.1806 1033.54 58.189 1036.29 73.2892L1046.18 128.009C1046.39 129.172 1046.6 130.271 1046.81 131.309C1047.87 136.58 1053.09 136.385 1053.72 131.047C1053.84 130.08 1053.95 129.061 1054.06 127.987L1064.51 23.8769C1066.9 0.0187531 1070.22 0.0103607 1074.44 0.00195312C1074.52 0.00195312 1074.6 0.00195312 1074.68 0.00195312C1078.78 0.00195312 1082.06 0.439621 1085.82 23.8306L1094.07 74.9811C1094.18 75.6946 1094.31 76.3559 1094.44 76.9687C1095.21 80.5224 1099.1 80.9076 1100.73 77.6567C1101.12 76.8783 1101.52 76.0134 1101.93 75.0526L1103.16 72.1571C1104.9 68.0665 1107.77 66.2947 1112.76 66.24C1117.65 66.2273 1121.17 67.8855 1124.22 71.9257L1127.91 76.8202C1128.58 77.7085 1129.24 78.3992 1129.85 78.935C1131.19 80.1062 1133.19 80.0673 1134.35 78.72C1134.8 78.2041 1135.25 77.561 1135.67 76.7613L1141.71 65.4109C1145.62 58.067 1149.6 57.4273 1153.22 57.5157C1156.9 57.5451 1160.68 58.189 1162.91 65.575L1170.33 90.2075C1170.6 91.1087 1170.87 91.9374 1171.14 92.6993C1172.47 96.4486 1176.68 96.2942 1177.67 92.4437C1177.85 91.7457 1178.02 90.9932 1178.2 90.1823L1185.22 56.7539C1188.79 39.7346 1192.22 39.7515 1196.28 39.7389C1200.14 39.7431 1203.77 39.7515 1206.51 56.7876L1213.66 101.082C1213.85 102.224 1214.04 103.298 1214.22 104.309C1215.16 109.418 1220.22 109.371 1221.06 104.244C1221.22 103.25 1221.38 102.194 1221.54 101.074L1228.71 50.2686C1231.83 28.1444 1235.15 28.1444 1239.37 28.1444C1243.56 28.1444 1246.91 28.178 1250.04 50.2686L1256.12 93.1703C1256.22 93.8615 1256.33 94.505 1256.44 95.1041C1257.14 98.7525 1261.11 99.1845 1262.78 95.8641C1263.17 95.0794 1263.57 94.2097 1263.99 93.2461L1268.77 82.1398C1271.07 76.7992 1274.82 76.029 1278.53 75.9995C1282.36 75.9995 1286.18 76.6645 1289.87 81.9546L1295.06 89.4289C1295.66 90.2879 1296.27 90.945 1296.84 91.4466C1298.04 92.5099 1299.84 92.5116 1301.04 91.4476C1301.61 90.9455 1302.22 90.2878 1302.81 89.4289L1311.4 77.0685C1313.24 74.4171 1316.37 73.0956 1320.96 73.0325C1325.54 72.9778 1329.19 74.1941 1332.12 76.7781L1337.67 81.7063C1338.84 82.7404 1340.06 83.2621 1340.78 83.4905C1341.16 83.6125 1341.57 83.6264 1341.96 83.5205C1342.73 83.3097 1344.01 82.7886 1345.22 81.7063L1348.66 78.6593C1352.3 75.444 1356.09 74.0636 1360.87 74.1899C1365.68 74.3119 1368.34 75.8564 1369.51 79.1938L1377.51 102.219C1377.84 103.16 1378.17 104.021 1378.48 104.808C1379.97 108.48 1384.14 108.179 1384.97 104.305C1385.11 103.643 1385.25 102.932 1385.38 102.168L1392.4 60.3733C1394.69 46.7208 1398.48 46.704 1402.13 46.6829C1405.77 46.6829 1409.58 46.6493 1413.68 60.2723L1422.31 88.9576C1422.52 89.6332 1422.77 90.1937 1423.04 90.658C1423.91 92.1391 1425.87 92.2705 1427.32 91.3356C1428.12 90.8124 1429.05 90.1051 1430.05 89.1512L1440.27 79.3958C1440.77 78.9287 1442.64 78.6551 1444.4 78.7814C1446.16 78.9287 1447.22 79.4084 1446.74 79.8756Z" fill="#FF8E2F"/>
</svg>
