<svg width="469" height="46" viewBox="0 0 469 46" fill="none" xmlns="http://www.w3.org/2000/svg">
<path d="M468.82 24.1733L465.528 27.1255C464.348 28.1839 463.121 28.631 461.561 28.6042C459.995 28.5686 459.143 28.0642 458.789 26.9689L456.007 18.2878C455.991 18.2382 455.975 18.1892 455.959 18.1409C455.436 16.5537 453.763 16.6529 453.469 18.298L451.207 30.9464C450.531 34.7291 449.263 34.7368 448.139 34.7419C447.016 34.7584 445.747 34.7584 444.354 30.9846L441.775 24.0166C441.473 23.2062 440.439 23.1337 439.729 23.6265C439.591 23.7225 439.445 23.8323 439.294 23.958L438.187 24.8801C437.417 25.5195 436.31 25.8443 434.89 25.8443C433.476 25.8443 432.363 25.5195 431.593 24.8801L429.804 23.3887C429.768 23.3583 429.732 23.329 429.695 23.3009C429.04 22.7898 427.831 22.7511 427.34 23.4218L424.573 27.1625C423.804 28.2056 422.758 28.6705 421.193 28.6705C419.628 28.6705 418.583 28.2056 417.813 27.1625L416.139 24.9005C416.093 24.8389 416.048 24.78 416.003 24.7236C415.333 23.8856 414.08 23.9458 413.632 24.9209L412.093 28.282C410.528 31.6992 409.259 31.6864 408.146 31.6775C407.028 31.6673 405.765 31.6559 405.245 28.2196L403.284 15.2374C402.977 13.1966 401.054 13.1978 400.747 15.2387L398.438 30.614C397.497 36.8918 396.374 36.8918 395.074 36.893C393.805 36.8854 392.651 36.8943 391.574 30.6191L389.271 17.2141C388.956 15.3785 387.157 15.3363 386.746 17.1529C386.742 17.1719 386.737 17.1911 386.733 17.2103L384.471 27.3268C383.618 31.1349 382.349 31.1388 381.226 31.1426C380.15 31.1426 378.834 31.1515 377.617 27.3472L375.225 19.8926C374.846 18.7161 373.451 18.6206 372.813 19.6792C372.775 19.7422 372.737 19.8073 372.698 19.8747L370.753 23.3097C370.109 24.4522 369.152 24.9438 367.555 24.9553C365.897 24.9565 364.888 24.4878 363.983 23.3569L362.797 21.8756C362.739 21.8034 362.682 21.7351 362.625 21.6705C361.938 20.8907 360.722 20.9551 360.291 21.9011L359.896 22.7774C358.383 26.1143 357.119 26.1041 356.006 26.0952C354.888 26.0863 353.625 26.0761 353.053 22.7213L350.396 7.24158C350.391 7.21699 350.387 7.19249 350.383 7.16808C350.023 5.09425 348.083 5.15391 347.858 7.24667L344.494 38.7538C343.771 45.4939 342.705 45.4964 341.348 45.5003C340.001 45.5028 338.924 45.5079 337.624 38.7716L334.437 22.208C334.101 20.472 332.365 20.4224 331.922 22.1343C331.916 22.1571 331.91 22.18 331.904 22.203L330.573 27.3917C329.96 29.7913 328.795 30.0001 327.552 30.0116C326.377 30.0269 325.087 29.8371 323.741 27.4541L321.832 24.0777C321.363 23.2465 320.231 23.2093 319.533 23.8606C319.47 23.9195 319.406 23.9825 319.341 24.0497C318.473 24.9514 317.329 25.3437 315.837 25.3565C314.313 25.3463 313.289 24.9183 312.618 24.0064L310.694 21.4069C310.644 21.3395 310.594 21.2752 310.545 21.2139C309.869 20.3743 308.615 20.4432 308.182 21.4299L306.258 25.8252C304.839 29.078 303.533 29.0729 302.457 29.0615C301.396 29.0538 300.081 29.0449 299.41 25.778L296.768 12.8672C296.764 12.847 296.76 12.8269 296.756 12.8068C296.364 10.9068 294.519 10.9526 294.231 12.871L291.001 34.3547C290.294 39.0837 289.124 39.0888 287.887 39.0939C286.649 39.0888 285.479 39.1053 284.143 34.3814L281.262 24.2C281.025 23.3651 279.991 23.2654 279.275 23.7565C279.117 23.8645 278.951 23.9894 278.776 24.1338L277.882 24.8789C277.112 25.5182 276.005 25.843 274.585 25.843C273.171 25.843 272.058 25.5182 271.288 24.8789L269.734 23.5861C269.637 23.5055 269.542 23.4326 269.45 23.3667C268.741 22.8581 267.706 22.8788 267.258 23.6281L265.704 26.2569C264.726 27.9126 263.483 28.1419 262.287 28.1419H262.282C261.086 28.1406 259.843 27.9114 258.907 26.2506L256.9 22.7035C256.885 22.6772 256.87 22.6513 256.855 22.6258C256.253 21.5992 254.882 21.6316 254.383 22.7124L251.981 27.9216C250.332 31.4865 249.064 31.4801 247.951 31.4623C246.833 31.4508 245.564 31.4381 245.133 27.8515L243.115 11.0676C242.846 8.82025 240.818 8.81837 240.577 11.0688L238.17 33.6198C237.213 42.5441 236.199 42.4983 234.759 42.4792C233.36 42.4792 232.346 42.413 231.306 33.6236L229.137 15.4119C228.878 13.2225 226.892 13.2254 226.6 15.4107L224.535 30.8675C223.553 38.2163 222.481 38.2163 221.124 38.2176C221.119 38.2176 221.109 38.2176 221.103 38.2176C219.757 38.2176 218.691 38.1743 217.671 30.87L216.507 22.5341C216.234 20.5891 214.381 20.535 213.984 22.4583C213.979 22.4818 213.974 22.5053 213.969 22.529L212.04 31.9552C211.109 36.5008 209.944 36.502 208.707 36.5033C207.506 36.502 206.304 36.5071 205.181 31.9628L202.94 22.8703C202.56 21.3316 200.923 21.2838 200.431 22.7904C200.423 22.8148 200.415 22.8393 200.408 22.864L198.14 29.9377C197.334 32.4557 196.149 32.6684 194.906 32.6735C194.89 32.6735 194.88 32.6735 194.864 32.6735C193.637 32.6735 192.436 32.4455 191.302 29.9657L188.505 23.8523C188.144 23.0641 187.109 23.0177 186.398 23.514C186.278 23.5976 186.153 23.6921 186.024 23.7988L185.556 24.1898C184.522 25.0521 183.378 25.4469 181.818 25.4138C180.304 25.3858 179.363 24.9578 178.859 24.0675L176.326 19.5933C176.296 19.54 176.266 19.4883 176.236 19.438C175.611 18.3949 174.222 18.4667 173.804 19.6086L170.913 27.421C170.029 29.8116 168.844 30.0129 167.601 30.0154C167.591 30.0154 167.585 30.0154 167.575 30.0154C166.343 30.0154 165.152 29.8065 164.081 27.4376L162.463 23.8625C162.109 23.0722 161.072 23.0241 160.363 23.5213C160.243 23.6057 160.117 23.7011 159.988 23.809L159.156 24.5006C158.241 25.2609 157.113 25.6367 155.61 25.6061C154.138 25.5895 153.119 25.2024 152.495 24.4242L149.786 21.0669C149.148 20.2669 147.931 20.2696 147.29 21.0669L145.875 22.8334C144.581 24.4445 143.281 24.6598 142.1 24.6394C140.904 24.6254 139.713 24.386 139.084 22.7493L136.458 15.9176C136.446 15.8854 136.433 15.8535 136.421 15.8221C135.885 14.465 134.328 14.5223 133.931 15.9265L130.634 27.5764C129.974 29.9046 128.762 30.1084 127.572 30.1186C126.376 30.1364 125.112 29.9454 123.807 27.6337L121.794 24.0803C121.323 23.2459 120.188 23.2134 119.486 23.8663C119.425 23.9239 119.362 23.9854 119.298 24.051L118.742 24.6267C118.056 25.3386 116.979 25.7042 115.544 25.7144C115.523 25.7144 115.502 25.7144 115.487 25.7144C114.078 25.7144 112.939 25.3641 112.107 24.6713L111.68 24.3146C111.486 24.1529 111.302 24.0142 111.129 23.8952C110.407 23.3991 109.369 23.5294 109.195 24.3872L106.075 39.6275C104.77 46.0084 103.657 46.0046 102.346 46.0008C101.046 45.997 99.9233 45.9944 99.2109 39.6084L95.7945 9.05905C95.5632 6.9992 93.6521 6.93329 93.2723 8.971C93.2672 8.99853 93.2621 9.02618 93.2569 9.05396L91.0573 20.9573C90.3033 25.0419 89.0813 25.047 87.9062 25.0521C86.7206 25.0559 85.509 25.061 84.2038 20.9854L83.2834 18.1095C83.2687 18.0637 83.254 18.0185 83.2393 17.9739C82.7247 16.41 81.0521 16.502 80.7458 18.1197L77.7714 33.8873C76.8406 38.8124 75.6706 38.8137 74.433 38.815C73.2474 38.82 72.0254 38.8188 70.9126 33.8949L68.7495 24.3325C68.5543 23.4817 67.519 23.3598 66.7988 23.853C66.6293 23.969 66.4486 24.1041 66.2587 24.2611L65.5151 24.8801C64.7455 25.5195 63.6379 25.8443 62.2183 25.8443C60.7987 25.8443 59.6911 25.5195 58.9267 24.8801L57.2159 23.4562C57.1389 23.3922 57.0624 23.333 56.987 23.2783C56.2767 22.7631 55.243 22.7687 54.7459 23.4919L52.1979 27.1994C51.1267 28.7609 49.8319 28.9825 48.7088 28.9825C48.6932 28.9825 48.6828 28.9825 48.6672 28.9825C47.5284 28.9774 46.2544 28.7583 45.4068 27.1688L43.3112 23.2461C43.2894 23.2052 43.2677 23.1653 43.246 23.1262C42.6432 22.0408 41.2321 22.0997 40.784 23.2575L39.2708 27.2058C37.7836 31.0687 36.5772 31.0509 35.3916 31.0509C34.2164 31.042 32.9996 31.0343 32.4172 27.1574L29.8849 10.3072C29.8811 10.2819 29.8773 10.2567 29.8735 10.2316C29.5391 8.01299 27.5372 8.07674 27.3473 10.3123L25.2829 34.5177C24.5549 43.0052 23.5357 43.0078 22.1213 43.0103C20.6757 43.0128 19.6877 43.0103 18.4137 34.5304L16.1933 19.7423C15.9288 17.9865 14.1948 17.8847 13.7012 19.5903C13.6878 19.6367 13.6744 19.6835 13.6609 19.7308L11.1806 28.5074C10.6814 30.2778 9.64656 30.6535 8.25297 30.6713C6.80218 30.6994 5.66338 30.344 4.37379 28.5991L0.874206 23.8816C0.770207 23.7377 1.16021 23.6001 1.7478 23.5734C2.351 23.5492 2.9022 23.6434 3.0062 23.7873L6.49538 28.5074C6.57518 28.6152 6.6539 28.7162 6.73127 28.8106C7.43754 29.6728 8.71405 29.5457 9.01216 28.4718L11.4926 19.6952C12.8289 14.9751 13.9729 14.9623 15.2365 14.9827C16.4741 14.9878 17.6441 14.9916 18.3513 19.7219L20.5717 34.5101C20.5755 34.5354 20.5793 34.5606 20.5831 34.5857C20.9174 36.8043 22.9193 36.7405 23.1093 34.505L25.1789 10.2996C25.9069 1.81208 26.9261 1.80954 28.3353 1.80699C29.7393 1.80062 30.7688 1.80061 32.0428 10.2856L34.5752 27.1357C34.8105 28.7025 36.433 28.8572 37.0215 27.3862C37.0518 27.3104 37.0823 27.2329 37.1128 27.1536L38.6312 23.2066C39.4632 21.0478 40.6852 20.8631 41.8708 20.858C41.8864 20.858 41.902 20.858 41.9176 20.858C43.0876 20.858 44.32 21.058 45.4536 23.1773L47.5492 27.1001C48.0659 28.0646 49.3502 28.0998 49.9869 27.2099C50.0098 27.1779 50.0327 27.1451 50.0555 27.1115L52.6035 23.404C53.1703 22.5799 54.1635 22.1686 55.6507 22.1469C57.1431 22.1291 58.3235 22.5048 59.2855 23.3059L60.9963 24.7298C61.2273 24.9212 61.4631 25.0546 61.6645 25.1451C61.9987 25.2955 62.3772 25.3058 62.7152 25.1642C62.9313 25.0736 63.1846 24.9351 63.4299 24.7298L64.1735 24.1109C65.4475 23.0486 66.7059 22.5901 68.2763 22.6398C69.8362 22.6844 70.6474 23.1977 70.897 24.3032L73.0602 33.8656C73.0633 33.8792 73.0664 33.8928 73.0695 33.9064C73.4785 35.6946 75.2603 35.6649 75.5978 33.8618L78.5722 18.0942C79.3366 14.0377 80.5586 14.0326 81.7338 14.0275C82.9038 14.0237 84.131 14.0173 85.431 18.0675L86.3514 20.9433C86.3665 20.9902 86.3816 21.0365 86.3966 21.0822C86.9161 22.6587 88.5843 22.5658 88.8837 20.9331L91.0833 9.02976C92.3365 2.24257 93.4025 2.2362 94.7649 2.24639C96.1221 2.24894 97.1881 2.25148 97.9525 9.04377L101.369 39.5931C101.593 41.5997 103.471 41.6824 103.88 39.7051C103.887 39.6705 103.894 39.6358 103.901 39.6008L107.021 24.3605C107.25 23.2384 108.051 22.7188 109.616 22.6729C111.171 22.6245 112.455 23.0881 113.75 24.1643L114.176 24.521C114.186 24.5288 114.195 24.5365 114.205 24.5442C114.834 25.0561 116.069 25.09 116.631 24.5044L117.187 23.9287C118.154 22.9238 119.246 22.4768 120.843 22.501C122.403 22.5188 123.354 22.9837 123.937 24.0064L125.949 27.5599C125.994 27.6388 126.038 27.7147 126.082 27.7877C126.73 28.8649 128.129 28.7481 128.471 27.5382L131.768 15.8883C132.657 12.7437 133.973 12.7398 135.034 12.7373C136.074 12.7246 137.41 12.7284 138.616 15.8679L141.242 22.6997C141.622 23.6783 142.845 23.7666 143.542 22.9816C143.612 22.9032 143.682 22.8195 143.754 22.7302L145.168 20.9637C145.933 20.0072 147.004 19.5614 148.538 19.5614C150.072 19.5614 151.143 20.0072 151.907 20.9637L154.601 24.3223C155.021 24.8498 156.247 24.938 156.799 24.5507C156.884 24.4908 156.972 24.4242 157.061 24.3503L157.893 23.6587C158.99 22.743 160.196 22.3329 161.741 22.3647C163.264 22.3978 164.174 22.8551 164.601 23.8039L166.218 27.379C166.229 27.4033 166.24 27.4274 166.251 27.4512C166.809 28.6563 168.283 28.6179 168.745 27.3726L171.636 19.5602C172.421 17.4357 173.643 17.2511 174.829 17.2447C176.03 17.2421 177.268 17.4077 178.464 19.5219L180.996 23.9962C181.423 24.756 182.462 24.7786 183.172 24.2723C183.269 24.203 183.369 24.1261 183.471 24.0408L183.939 23.6498C185.036 22.7366 186.279 22.329 187.782 22.3596C189.306 22.3927 190.216 22.8487 190.652 23.7937L193.45 29.9072C193.469 29.9476 193.487 29.9873 193.505 30.0264C194.082 31.2447 195.566 31.1805 195.977 29.897L198.244 22.8232C199.42 19.1653 200.709 19.1742 201.806 19.1704C202.924 19.173 204.193 19.1755 205.098 22.8385L207.339 31.931C207.343 31.946 207.347 31.961 207.35 31.9759C207.776 33.6945 209.521 33.6617 209.877 31.9271L211.806 22.501C213.007 16.6219 214.052 16.6257 215.43 16.6257C216.73 16.6283 217.848 16.6308 218.67 22.515L219.835 30.8509C220.132 32.9678 222.094 32.9685 222.377 30.8496L224.442 15.3928C225.492 7.51668 226.558 7.44918 227.9 7.44918C229.356 7.45427 230.359 7.38295 231.311 15.3954L233.474 33.6096C233.741 35.8614 235.769 35.863 236.012 33.6083L238.419 11.0574C239.366 2.18398 240.369 2.25021 241.831 2.2553C243.224 2.2553 244.238 2.32535 245.289 11.0548L247.306 27.8388C247.486 29.3263 249.03 29.534 249.682 28.185C249.732 28.0819 249.783 27.975 249.833 27.8643L252.236 22.6551C253.047 20.9038 254.139 20.5421 255.538 20.5383C256.884 20.5294 258.065 20.8886 259.053 22.6347L261.06 26.1818C261.627 27.186 262.99 27.1769 263.577 26.1843L265.132 23.5555C265.652 22.6767 266.598 22.2552 268.106 22.2284C269.604 22.217 270.8 22.5863 271.824 23.4384L273.379 24.7311C273.603 24.917 273.833 25.0483 274.031 25.1386C274.375 25.2954 274.766 25.307 275.114 25.1587C275.326 25.0681 275.573 24.9313 275.812 24.7311L276.707 23.986C277.939 22.962 279.203 22.5315 280.742 22.5647C282.302 22.6067 283.129 23.1009 283.43 24.1656L286.311 34.347C286.325 34.3947 286.338 34.4418 286.352 34.4883C286.845 36.1945 288.583 36.0938 288.844 34.3369L292.073 12.8532C292.931 7.13459 294.049 7.13332 295.349 7.13077C296.669 7.12568 297.767 7.1244 298.937 12.8417L301.578 25.7526C301.869 27.1739 303.406 27.3049 304.013 25.9872C304.045 25.9168 304.078 25.8446 304.111 25.7704L306.035 21.3738C306.752 19.7296 307.959 19.4939 309.155 19.4825C310.351 19.4914 311.625 19.6875 312.826 21.3127L314.75 23.9122C315.32 24.6817 316.449 24.6912 317.137 24.0247C317.17 23.9931 317.203 23.9602 317.235 23.9262C318.203 22.9213 319.274 22.4742 320.891 22.4984C322.451 22.5163 323.402 22.9811 323.985 24.0039L325.893 27.3803C325.943 27.4675 325.992 27.5512 326.041 27.6316C326.701 28.7197 328.1 28.5877 328.42 27.3561L329.752 22.1673C330.922 17.6026 332.112 17.609 333.329 17.6051C334.567 17.6077 335.732 17.6102 336.616 22.18L339.803 38.7398C339.809 38.7722 339.816 38.8045 339.822 38.8366C340.211 40.8477 342.121 40.7702 342.341 38.7334L345.705 7.22629C346.475 0.00606155 347.546 0.00352478 348.903 0.000976562C348.929 0.000976562 348.955 0.000976562 348.981 0.000976562C350.302 0.000976562 351.358 0.13343 352.569 7.21228L355.226 22.692C355.476 24.1349 357.009 24.2973 357.638 22.9747C357.678 22.8904 357.718 22.8034 357.759 22.7137L358.154 21.8374C358.716 20.5994 359.641 20.0632 361.248 20.0467C362.824 20.0429 363.957 20.5447 364.94 21.7674L366.126 23.2486C366.162 23.2941 366.199 23.3379 366.235 23.3801C366.906 24.1582 368.122 24.126 368.627 23.2308L370.571 19.7958C371.83 17.5733 373.114 17.3797 374.279 17.4064C375.465 17.4154 376.681 17.6102 377.399 19.8455L379.791 27.3C379.801 27.3327 379.812 27.3651 379.822 27.3972C380.32 28.9253 381.972 28.8604 382.323 27.2924L384.585 17.1759C385.735 12.0253 386.842 12.0304 388.147 12.0266C389.39 12.0279 390.56 12.0304 391.444 17.1861L393.748 30.5911C394.092 32.5872 395.983 32.5915 396.285 30.5886L398.594 15.2132C399.598 8.51776 400.669 8.51776 402.026 8.51776C403.378 8.51776 404.454 8.52795 405.463 15.2132L407.424 28.1967C407.644 29.6548 409.184 29.8347 409.822 28.5054C409.867 28.4133 409.911 28.3181 409.956 28.2196L411.495 24.8585C412.239 23.2422 413.445 23.0092 414.641 23.0002C415.874 23.0002 417.106 23.2015 418.292 24.8024L419.966 27.0644C420.591 27.9077 421.837 27.9077 422.462 27.0644L425.228 23.3237C425.821 22.5214 426.83 22.1214 428.307 22.1023C429.784 22.0858 430.959 22.4539 431.9 23.2359L433.689 24.7273C433.913 24.9132 434.143 25.0444 434.341 25.1348C434.685 25.2916 435.076 25.3031 435.423 25.1549C435.636 25.0643 435.883 24.9275 436.122 24.7273L437.23 23.8052C438.4 22.8321 439.622 22.4144 441.161 22.4526C442.711 22.4895 443.569 22.9569 443.943 23.9669L446.522 30.935C446.546 30.9994 446.57 31.0625 446.594 31.1244C447.159 32.5969 448.775 32.472 449.055 30.9197L451.317 18.2712C452.055 14.1396 453.277 14.1345 454.452 14.1281C455.622 14.1281 456.849 14.1179 458.17 18.2407L460.952 26.9218C461.224 27.7814 462.298 27.8746 463.018 27.3311C463.154 27.2286 463.296 27.1123 463.443 26.9803L466.735 24.0281C466.896 23.8867 467.499 23.8039 468.066 23.8421C468.633 23.8867 468.976 24.0319 468.82 24.1733Z" fill="white"/>
</svg>
