<svg width="368" height="850" viewBox="0 0 368 850" fill="none" xmlns="http://www.w3.org/2000/svg">
<path opacity="0.46" fill-rule="evenodd" clip-rule="evenodd" d="M224.9 733.989C42.5657 894.805 -244.642 886.937 -416.598 716.414C-588.553 545.892 -580.14 277.288 -397.806 116.471C-215.472 -44.3452 71.7359 -36.4769 243.691 134.046C415.647 304.569 407.233 573.172 224.9 733.989ZM-328.813 638.974C-202.283 764.45 8.64381 769.944 142.28 652.078C275.916 534.213 282.399 336.965 155.869 211.49C29.3386 86.0136 -181.588 80.5197 -315.225 198.385C-448.861 316.251 -455.344 513.498 -328.813 638.974ZM-273.315 590.026C-175.998 686.532 -13.4549 690.985 89.7357 599.972C192.926 508.959 197.688 356.944 100.371 260.438C3.05379 163.932 -159.49 159.479 -262.68 250.492C-365.871 341.505 -370.632 493.519 -273.315 590.026Z" fill="#198D72"/>
</svg>
