<svg width="411" height="411" viewBox="0 0 411 411" fill="none" xmlns="http://www.w3.org/2000/svg">
<path d="M120.974 363.163C121.576 362.078 121.182 360.708 120.095 360.108C71.385 333.17 38.8242 286.176 30.7601 231.173C22.3712 173.955 42.6019 116.167 84.8784 76.5897C85.7847 75.7411 85.8313 74.3181 84.9829 73.4125C84.135 72.506 82.7127 72.4594 81.8056 73.308C38.4544 113.892 17.7092 173.151 26.3118 231.826C30.4821 260.271 40.9423 286.52 57.4033 309.845C73.1017 332.089 94.0278 350.83 117.919 364.043C119.005 364.643 120.373 364.25 120.974 363.163Z" fill="white"/>
<path d="M350.613 313.635C379.482 274.847 391.519 227.141 384.506 179.305C377.492 131.471 352.269 89.2277 313.48 60.3602C274.691 31.4919 226.985 19.4558 179.148 26.4693C162.881 28.8542 147.079 33.3991 132.181 39.9774C131.045 40.4788 130.531 41.809 131.032 42.942C131.534 44.0779 132.862 44.5921 133.997 44.0902C148.524 37.676 163.934 33.2439 179.799 30.9179C276.102 16.7986 365.938 83.6573 380.056 179.958C394.175 276.259 327.313 366.092 231.01 380.211C212.528 382.921 193.91 382.717 175.675 379.606C174.451 379.396 173.29 380.219 173.081 381.443C173.04 381.683 173.039 381.92 173.073 382.148C173.21 383.086 173.936 383.869 174.92 384.038C193.621 387.229 212.713 387.439 231.663 384.66C279.5 377.647 321.744 352.423 350.613 313.635Z" fill="white"/>
<path d="M284.298 94.3998C255.557 73.9926 220.516 65.5706 185.63 70.6853C111.259 81.589 59.6266 150.965 70.5304 225.337C71.7227 233.469 73.6468 241.509 76.2496 249.236C76.6462 250.412 77.9212 251.045 79.0976 250.649C80.2746 250.252 80.9027 248.972 80.5105 247.801C77.9934 240.328 76.1323 232.551 74.9788 224.684C64.4347 152.766 114.365 85.6777 186.282 75.1337C220.017 70.1877 253.903 78.3315 281.696 98.0652C282.708 98.784 284.112 98.5464 284.83 97.5337C285.549 96.5225 285.311 95.1185 284.298 94.3998Z" fill="white"/>
<path d="M107.21 299.525C107.276 299.978 107.482 300.416 107.826 300.769C122.56 315.848 140.848 327.471 160.712 334.382C181.239 341.523 203.533 343.62 225.182 340.446C299.548 329.543 351.179 260.167 340.275 185.796C337.869 169.386 332.604 153.778 324.624 139.405C324.022 138.319 322.653 137.927 321.568 138.53C320.482 139.133 320.088 140.502 320.694 141.586C328.408 155.483 333.5 170.577 335.827 186.449C346.371 258.367 296.443 325.454 224.53 335.997C182.907 342.1 140.482 327.756 111.041 297.626C110.173 296.739 108.75 296.722 107.862 297.59C107.327 298.113 107.109 298.837 107.21 299.525Z" fill="white"/>
</svg>
