<svg width="277" height="82" viewBox="0 0 277 82" fill="none" xmlns="http://www.w3.org/2000/svg">
<path d="M270.326 1.80322H6.99615C4.51084 1.80322 2.49609 3.80882 2.49609 6.28285V75.7171C2.49609 78.1911 4.51084 80.1967 6.99615 80.1967H270.326C272.811 80.1967 274.826 78.1911 274.826 75.7171V6.28285C274.826 3.80882 272.811 1.80322 270.326 1.80322Z" fill="white" stroke="#0B4739" stroke-width="2"/>
<path d="M99.9396 21.7998C99.9396 23.3428 99.5521 24.693 98.5834 25.6573C97.4208 26.8145 96.0646 27.3932 94.3208 27.3932C92.577 27.3932 91.2207 26.8145 90.0582 25.6573C88.8957 24.5 88.3145 23.15 88.3145 21.4141C88.3145 19.6783 88.8957 18.3282 90.0582 17.1709C91.2207 16.0137 92.577 15.4351 94.3208 15.4351C95.0958 15.4351 95.8708 15.6279 96.6457 16.0137C97.4208 16.3994 98.0021 16.7852 98.3895 17.3638L97.4208 18.3281C96.6458 17.3638 95.677 16.9781 94.3208 16.9781C93.1582 16.9781 91.9957 17.3638 91.2207 18.3281C90.252 19.0996 89.8645 20.2569 89.8645 21.607C89.8645 22.9571 90.252 24.1143 91.2207 24.8858C92.1895 25.6573 93.1582 26.2359 94.3208 26.2359C95.677 26.2359 96.6457 25.8502 97.6146 24.8858C98.1958 24.3072 98.5834 23.5357 98.5834 22.5713H94.3208V21.2213H99.9396C99.9396 21.2213 99.9396 21.4141 99.9396 21.7998Z" fill="#0B4739" stroke="#0B4739" stroke-width="0.2" stroke-miterlimit="10"/>
<path d="M108.856 16.9781H103.624V20.6426H108.468V21.9928H103.624V25.6573H108.856V27.0074H102.074V15.4351H108.856V16.9781Z" fill="#0B4739" stroke="#0B4739" stroke-width="0.2" stroke-miterlimit="10"/>
<path d="M115.249 27.0074H113.698V16.7852H110.404V15.4351H118.542V16.7852H115.249V27.0074Z" fill="#0B4739" stroke="#0B4739" stroke-width="0.2" stroke-miterlimit="10"/>
<path d="M124.16 27.0074V15.4351H125.709V27.0074H124.16Z" fill="#0B4739" stroke="#0B4739" stroke-width="0.2" stroke-miterlimit="10"/>
<path d="M132.298 27.0074H130.749V16.7852H127.455V15.4351H135.399V16.7852H132.105V27.0074H132.298Z" fill="#0B4739" stroke="#0B4739" stroke-width="0.2" stroke-miterlimit="10"/>
<path d="M150.703 25.6573C149.541 26.8145 148.184 27.3932 146.44 27.3932C144.696 27.3932 143.341 26.8145 142.177 25.6573C141.015 24.5 140.434 23.15 140.434 21.4141C140.434 19.6783 141.015 18.3282 142.177 17.1709C143.341 16.0137 144.696 15.4351 146.44 15.4351C148.184 15.4351 149.541 16.0137 150.703 17.1709C151.865 18.3282 152.447 19.6783 152.447 21.4141C152.447 22.9571 151.865 24.5 150.703 25.6573ZM143.341 24.693C144.116 25.4645 145.278 26.043 146.44 26.043C147.603 26.043 148.765 25.6573 149.541 24.693C150.316 23.9215 150.896 22.7643 150.896 21.4141C150.896 20.064 150.509 18.9068 149.541 18.1353C148.765 17.3638 147.603 16.7852 146.44 16.7852C145.278 16.7852 144.116 17.1709 143.341 18.1353C142.565 18.9068 141.984 20.064 141.984 21.4141C141.984 22.5713 142.372 23.7286 143.341 24.693Z" fill="#0B4739" stroke="#0B4739" stroke-width="0.2" stroke-miterlimit="10"/>
<path d="M154.58 27.0074V15.4351H156.324L161.942 24.5V22.1856V15.4351H163.492V27.0074H161.942L155.936 17.5567V19.8711V27.0074H154.58Z" fill="#0B4739" stroke="#0B4739" stroke-width="0.2" stroke-miterlimit="10"/>
<path d="M140.049 43.98C135.4 43.98 131.719 47.4517 131.719 52.2736C131.719 56.9025 135.4 60.5671 140.049 60.5671C144.699 60.5671 148.381 57.0954 148.381 52.2736C148.381 47.4517 144.699 43.98 140.049 43.98ZM140.049 57.0954C137.531 57.0954 135.4 54.9738 135.4 52.0808C135.4 49.1876 137.531 47.066 140.049 47.066C142.568 47.066 144.699 48.9947 144.699 52.0808C144.699 55.1667 142.568 57.0954 140.049 57.0954ZM122.03 43.98C117.38 43.98 113.699 47.4517 113.699 52.2736C113.699 56.9025 117.38 60.5671 122.03 60.5671C126.681 60.5671 130.362 57.0954 130.362 52.2736C130.362 47.4517 126.681 43.98 122.03 43.98ZM122.03 57.0954C119.512 57.0954 117.38 54.9738 117.38 52.0808C117.38 49.1876 119.512 47.066 122.03 47.066C124.549 47.066 126.681 48.9947 126.681 52.0808C126.681 55.1667 124.549 57.0954 122.03 57.0954ZM100.524 46.4874V49.9591H108.855C108.662 51.8879 107.887 53.4308 106.918 54.3952C105.755 55.5524 103.818 56.9025 100.524 56.9025C95.2927 56.9025 91.4176 52.8521 91.4176 47.6447C91.4176 42.4371 95.4864 38.3868 100.524 38.3868C103.237 38.3868 105.368 39.5439 106.918 40.8941L109.437 38.3868C107.305 36.458 104.593 34.915 100.718 34.915C93.7427 34.915 87.7363 40.7013 87.7363 47.6447C87.7363 54.588 93.7427 60.3742 100.718 60.3742C104.593 60.3742 107.305 59.217 109.63 56.7097C111.955 54.3952 112.73 51.1163 112.73 48.609C112.73 47.8375 112.73 47.066 112.537 46.4874H100.524ZM188.488 49.1876C187.713 47.2589 185.775 43.98 181.513 43.98C177.25 43.98 173.763 47.2589 173.763 52.2736C173.763 56.9025 177.25 60.5671 181.9 60.5671C185.581 60.5671 187.906 58.2527 188.682 56.9025L185.969 54.9738C185.001 56.3239 183.837 57.2882 181.9 57.2882C179.963 57.2882 178.799 56.5168 177.831 54.781L188.875 50.1519L188.488 49.1876ZM177.25 51.8879C177.25 48.8019 179.769 47.066 181.513 47.066C182.869 47.066 184.225 47.8375 184.612 48.8019L177.25 51.8879ZM168.143 59.7956H171.824V35.6865H168.143V59.7956ZM162.331 45.7159C161.362 44.7515 159.813 43.7872 157.874 43.7872C153.806 43.7872 149.93 47.4517 149.93 52.0808C149.93 56.7097 153.613 60.1814 157.874 60.1814C159.813 60.1814 161.362 59.217 162.137 58.2527H162.331V59.4099C162.331 62.4958 160.588 64.2316 157.874 64.2316C155.743 64.2316 154.193 62.6887 153.806 61.3386L150.706 62.6887C151.674 64.8103 154 67.5105 158.069 67.5105C162.331 67.5105 165.819 65.0031 165.819 59.0242V44.3658H162.331V45.7159ZM158.069 57.0954C155.55 57.0954 153.418 54.9738 153.418 52.0808C153.418 49.1876 155.55 47.066 158.069 47.066C160.588 47.066 162.525 49.1876 162.525 52.0808C162.525 54.9738 160.588 57.0954 158.069 57.0954ZM205.344 35.6865H196.625V59.7956H200.306V50.7306H205.344C209.412 50.7306 213.288 47.8375 213.288 43.2086C213.288 38.5796 209.412 35.6865 205.344 35.6865ZM205.538 47.4517H200.306V39.1583H205.538C208.25 39.1583 209.8 41.4728 209.8 43.2086C209.607 45.1373 208.057 47.4517 205.538 47.4517ZM227.82 43.98C225.106 43.98 222.394 45.1373 221.425 47.6447L224.719 48.9947C225.494 47.6447 226.656 47.2589 228.013 47.2589C229.951 47.2589 231.694 48.4162 231.888 50.3449V50.5377C231.307 50.1519 229.757 49.5734 228.207 49.5734C224.719 49.5734 221.232 51.5021 221.232 54.9738C221.232 58.2527 224.138 60.3742 227.238 60.3742C229.757 60.3742 230.919 59.217 231.888 58.0598H232.081V59.9885H235.569V50.7306C235.182 46.2945 231.888 43.98 227.82 43.98ZM227.432 57.0954C226.269 57.0954 224.526 56.5168 224.526 54.9738C224.526 53.0451 226.656 52.4664 228.4 52.4664C229.951 52.4664 230.726 52.8523 231.694 53.238C231.307 55.5525 229.369 57.0954 227.432 57.0954ZM247.775 44.3658L243.707 54.781H243.514L239.251 44.3658H235.375L241.77 59.0242L238.088 67.1248H241.77L251.651 44.3658H247.775ZM215.225 59.7956H218.906V35.6865H215.225V59.7956Z" fill="#0B4739"/>
<path d="M27.2875 64.618C26.5125 64.2323 26.125 63.2679 26.125 62.3036C26.125 62.1106 26.125 61.7249 26.125 61.5321C26.125 47.2595 26.125 32.9869 26.125 18.9072C26.125 18.1357 26.3187 17.5571 26.5125 16.7856C26.7063 16.3998 27.0938 16.0141 27.4813 15.6284C35.8126 23.9219 43.9502 32.2154 52.0878 40.509C43.7565 48.2238 35.6189 56.3245 27.2875 64.618Z" fill="#0B4739"/>
<path d="M60.2242 32.0216C57.8992 34.3361 55.3804 36.6505 53.0554 39.1579C45.3053 31.2501 37.3614 23.3423 29.6113 15.4345C29.6113 15.4345 29.6113 15.2417 29.8051 15.2417C39.8802 20.835 49.9553 26.4283 60.2242 32.0216Z" fill="#0B4739"/>
<path d="M29.6113 64.6173C37.3614 56.9024 45.3053 49.1876 53.0554 41.4727C55.1866 43.5942 57.5117 45.7159 60.0305 48.0303C49.9553 53.6237 39.8802 59.2169 29.8051 64.6173H29.6113Z" fill="#0B4739"/>
<path d="M61.384 47.2584C58.8652 44.944 56.5403 42.6295 54.0215 40.3151C56.5403 37.8077 59.0591 35.3003 61.5778 32.793C62.3528 33.1787 63.1278 33.5645 63.9028 34.143C65.8403 35.3003 67.9717 36.2647 69.9092 37.4219C70.4905 37.6147 70.8779 38.0005 71.2654 38.5791C72.0404 39.5434 72.0404 40.5079 71.2654 41.4723C70.8779 41.8579 70.4905 42.2438 69.9092 42.4366C67.1966 44.1725 64.2904 45.7155 61.384 47.2584Z" fill="#0B4739"/>
</svg>
