<svg width="1428" height="192" viewBox="0 0 1428 192" fill="none" xmlns="http://www.w3.org/2000/svg">
<path d="M0.114982 91.1069L10.1584 78.7844C13.7602 74.3667 17.5048 72.5008 22.2648 72.6124C27.0405 72.7613 29.6426 74.8664 30.7216 79.4382L39.2102 115.672C40.9238 122.961 42.5423 126.809 43.764 128.84C44.7637 126.799 46.0011 122.929 46.9531 115.63L53.8551 62.8362C55.9177 47.0476 59.7893 47.0157 63.2164 46.9944C66.6437 46.9253 70.515 46.9253 74.7673 62.6768L82.6371 91.7608C83.3511 94.3869 84.5729 95.4767 85.2392 95.8967C86.1594 95.5245 87.984 94.5358 90.2053 92.0053L93.5851 88.1565C95.9333 85.4879 99.3129 84.1323 103.644 84.1323C107.96 84.1323 111.356 85.4879 113.704 88.1565L119.162 94.3816C121.288 96.8057 123.192 97.4064 123.24 97.5234C123.652 97.3958 125.35 96.7313 126.683 94.2434L135.124 78.6302C137.472 74.2764 140.661 72.336 145.437 72.336C150.213 72.336 153.402 74.2764 155.75 78.6302L160.859 88.0715C162.605 91.3036 164.255 92.7549 165.223 93.3875C166.079 92.7336 167.412 91.2505 168.507 87.9864L173.203 73.9574C177.979 59.6945 181.851 59.7476 185.246 59.7848C188.658 59.8274 192.513 59.8752 194.1 74.2179L200.082 128.404C201.383 140.211 202.811 146.713 203.953 150.28C205.095 146.713 206.523 140.211 207.824 128.399L214.869 64.2237C217.741 38.021 221.168 38.021 225.135 38.0157C229.006 38.0476 232.529 38.0103 235.813 64.2025L242.842 120.154C243.984 129.26 245.317 134.177 246.396 136.83C247.57 134.177 249.093 129.265 250.585 120.17L257.487 77.9444C260.089 62.0495 263.96 62.0335 267.388 62.0176C270.672 62.0176 274.686 61.9804 278.399 77.8594L285.698 108.974C286.697 113.211 287.982 115.316 288.903 116.342C289.997 115.337 291.663 113.259 293.409 109.049L299.343 94.7112C301.31 89.9427 304.23 87.8907 309.101 87.8429C314.162 87.8376 317.24 89.7939 320.001 94.5145L323.619 100.697C325.443 103.802 327.109 105.168 328.077 105.753C328.902 105.147 330.219 103.738 331.266 100.591L332.472 96.9333C337.09 83.0053 340.945 83.0478 344.341 83.085C347.752 83.1223 351.607 83.1648 353.353 97.1672L361.46 161.778C363.063 174.505 364.65 181.533 365.887 185.408C366.95 181.522 368.204 174.489 369.203 161.757L379.469 30.2489C381.675 2.11647 384.927 2.10583 389.068 2.08988C393.178 2.07925 396.462 2.05799 400.429 30.1745L410.155 99.3096C411.297 107.385 412.614 111.696 413.677 114.003C414.852 111.707 416.375 107.395 417.882 99.3309L421.944 77.6733C423.816 67.6579 427.37 66.7861 431.162 66.7382C434.748 66.6745 438.683 67.4665 442.793 77.4129L448.616 91.5057C449.711 94.1584 451.091 95.2588 451.837 95.6841C452.709 95.2801 454.391 94.2275 456.216 91.6226C458.865 87.8589 462.356 86.2215 466.91 86.1684C471.559 86.2109 474.684 87.9971 476.731 91.8034L482.602 102.653C484.379 105.933 486.029 107.417 487.029 108.065C487.885 107.39 489.202 105.87 490.265 102.558L496.136 84.2121C500.468 70.6349 504.45 70.6562 507.735 70.704C510.971 70.7359 514.986 70.7731 517.032 84.4088L525.093 138.297C526.6 148.382 528.139 153.873 529.329 156.861C530.408 153.873 531.725 148.377 532.835 138.282L542.689 48.6106C544.846 28.8721 548.416 28.8508 552.193 28.8296C555.969 28.8508 559.539 28.7817 563.617 48.4989L572.407 90.9953C572.978 93.7437 574.12 94.9292 574.803 95.4077C575.77 94.993 577.659 93.9138 579.991 91.2718L582.72 88.1619C585.068 85.4932 588.448 84.1377 592.779 84.1377C597.095 84.1377 600.491 85.4932 602.839 88.1619L607.583 93.5577C609.598 95.8542 611.328 96.6569 612.089 96.9227C612.74 96.625 614.104 95.7426 615.135 93.3822L619.88 82.4099C622.862 75.4991 626.655 74.5422 630.304 74.5422L630.32 74.5422C633.969 74.5475 637.761 75.5044 640.617 82.4365L646.742 97.2417C648.281 100.942 649.82 102.701 650.819 103.515C651.756 102.691 653.168 100.92 654.421 97.2045L661.752 75.4619C666.781 60.5823 670.653 60.6089 674.048 60.6833C677.459 60.7312 681.331 60.7843 682.648 75.7543L688.804 145.809C690.169 161.433 691.628 170.103 692.818 174.914C693.961 170.103 695.325 161.433 696.547 145.804L703.893 51.6779C706.813 14.4285 709.907 14.6198 714.302 14.6996C718.57 14.6996 721.664 14.976 724.837 51.662L731.453 127.676C732.675 141.79 734.04 149.583 735.182 153.884C736.372 149.583 737.816 141.79 739.196 127.681L745.495 63.1659C748.494 32.4924 751.763 32.4924 755.904 32.487C755.92 32.487 755.951 32.487 755.967 32.487C760.077 32.487 763.329 32.6678 766.439 63.1553L769.993 97.9487C771.056 108.331 772.342 113.998 773.42 117.092C774.626 114.009 776.181 108.347 777.736 97.97L783.623 58.626C786.463 39.6531 790.017 39.6477 793.793 39.6424C797.458 39.6477 801.124 39.6265 804.551 58.5941L811.389 96.5453C812.547 102.967 813.896 106.348 814.943 108.124C816.086 106.359 817.609 102.988 819.116 96.5719L826.034 67.0466C828.493 56.5368 832.111 55.649 835.903 55.6278C835.951 55.6278 835.982 55.6278 836.03 55.6278C839.775 55.6278 843.44 56.5793 846.899 66.9297L855.435 92.4466C856.276 94.9611 857.561 95.9605 858.227 96.3327C859.084 96.0084 860.861 95.094 863.003 92.6699L864.431 91.0379C867.589 87.4389 871.079 85.791 875.839 85.9292C880.456 86.0461 883.328 87.8323 884.867 91.5482L892.594 110.223C894.26 114.237 895.879 116.193 896.942 117.124C897.862 116.172 899.211 114.195 900.29 110.16L909.112 77.5511C911.809 67.5729 915.426 66.733 919.219 66.7223C919.25 66.7223 919.266 66.7223 919.298 66.7223C923.058 66.7223 926.692 67.5942 929.96 77.482L934.895 92.4041C935.72 94.9239 937.005 95.9286 937.671 96.3008C938.528 95.9765 940.321 95.0568 942.447 92.6274L944.986 89.7408C947.778 86.5671 951.221 84.9989 955.807 85.1265C960.297 85.1956 963.407 86.8117 965.311 90.0598L973.577 104.073C975.053 106.603 976.592 107.608 977.385 107.98C978.163 107.608 979.702 106.609 981.193 104.073L985.509 96.6995C989.46 89.9747 993.427 89.0763 997.028 89.1613C1000.68 89.2198 1004.31 90.2192 1006.23 97.0504L1014.24 125.566C1015.8 131.078 1017.35 133.912 1018.46 135.358C1019.48 133.901 1020.81 131.057 1021.95 125.528L1032.01 76.9026C1034.03 67.1848 1037.73 66.3343 1041.36 66.2917C1045.01 66.2173 1048.86 67.0147 1052.85 76.6633L1058.99 91.4951C1060.08 94.1478 1061.46 95.2482 1062.22 95.6788C1063.1 95.2748 1064.76 94.2222 1066.6 91.6173L1068.3 89.2145C1070.4 86.2428 1073.68 84.7171 1078.06 84.6746C1078.12 84.6746 1078.19 84.6746 1078.23 84.6746C1082.53 84.6746 1086.01 86.1365 1088.55 89.0284L1089.85 90.5169C1092.28 93.2813 1094.21 94.4402 1095.24 94.908C1095.92 94.3764 1097 93.0952 1097.43 90.2139L1106.95 26.6022C1110.93 -0.0311557 1114.33 -0.0151952 1118.33 0.000753231C1122.29 0.0167017 1125.72 0.0273398 1127.9 26.682L1138.32 154.192C1139.3 166.175 1140.54 172.772 1141.6 176.403C1142.86 172.777 1144.44 166.191 1146.06 154.214L1152.77 104.53C1155.08 87.4815 1158.8 87.4602 1162.39 87.439C1166.01 87.423 1169.7 87.4017 1173.69 104.413L1176.5 116.417C1178.16 123.508 1179.78 127.288 1180.99 129.287C1181.98 127.277 1183.25 123.482 1184.24 116.374L1193.31 50.5616C1196.15 30.0045 1199.72 29.9992 1203.5 29.9938C1207.12 29.9726 1210.85 29.9779 1214.24 50.5297L1220.84 90.4425C1221.32 93.2813 1222.41 94.5359 1223.1 95.0569C1224.11 94.605 1226.03 93.4674 1228.44 90.7402L1230.71 88.1566C1233.06 85.488 1236.44 84.1324 1240.77 84.1324C1245.1 84.1324 1248.48 85.488 1250.81 88.1566L1256.03 94.1C1257.84 96.1573 1259.56 97.0185 1260.38 97.2843C1261.11 96.9866 1262.51 96.0669 1263.57 93.9511L1271.35 78.4761C1274.61 71.9587 1278.56 71.0337 1281.99 71.0337C1282.04 71.0337 1282.07 71.0337 1282.12 71.0337C1285.59 71.0549 1289.48 71.9693 1292.07 78.6037L1298.46 94.9771C1300.05 99.0545 1301.63 101.053 1302.7 102.01C1303.65 101.037 1305.01 99.0226 1306.17 94.9293L1310.79 78.4496C1315.33 62.326 1319.01 62.4004 1322.63 62.4004C1326.21 62.4376 1329.93 62.4695 1331.7 78.6516L1339.43 148.983C1341.08 164.048 1342.68 172.395 1343.97 177.014C1345.03 172.389 1346.24 164.032 1347.17 148.962L1353.47 47.9302C1355.69 12.5041 1358.8 12.4935 1363.12 12.4828C1367.53 12.4722 1370.54 12.4828 1374.43 47.877L1381.21 109.602C1382.13 117.958 1383.33 122.44 1384.33 124.843C1385.57 122.456 1387.2 117.985 1388.93 109.649L1396.5 73.0166C1398.02 65.6273 1401.18 64.059 1405.43 63.9846C1409.86 63.8677 1413.34 65.3508 1417.27 72.6338L1427.95 92.3244C1428.27 92.9251 1427.08 93.4993 1425.28 93.6109C1423.44 93.7119 1421.76 93.3185 1421.44 92.7178L1410.8 73.0166C1408.8 69.3219 1407.02 67.5676 1405.93 66.7596C1405.07 67.6048 1403.88 69.4123 1403.12 73.1654L1395.55 109.798C1391.47 129.499 1387.98 129.553 1384.13 129.468C1380.35 129.446 1376.78 129.43 1374.62 109.687L1367.85 47.9621C1366.2 32.8964 1364.59 24.5502 1363.31 19.9306C1362.25 24.5556 1361.04 32.9124 1360.1 47.9833L1353.79 149.015C1351.57 184.441 1348.46 184.451 1344.16 184.462C1339.87 184.489 1336.73 184.489 1332.84 149.073L1325.12 78.7419C1324.37 71.948 1323.23 68.3384 1322.29 66.4353C1321.04 68.3172 1319.28 71.9002 1317.37 78.6675L1312.74 95.1419C1310.2 104.153 1306.47 104.923 1302.86 104.945C1302.81 104.945 1302.76 104.945 1302.71 104.945C1299.14 104.945 1295.38 104.11 1291.92 95.2642L1285.53 78.8908C1284.28 75.6905 1282.86 74.2446 1281.99 73.6173C1281.06 74.2339 1279.47 75.6586 1277.88 78.8429L1270.11 94.3179C1268.38 97.7574 1265.35 99.4745 1260.81 99.5649C1256.26 99.6393 1252.65 98.0711 1249.72 94.7273L1244.5 88.7839C1242.88 86.9499 1241.18 86.3917 1240.87 86.3439C1240.39 86.3917 1238.68 86.9499 1237.07 88.7839L1234.8 91.3675C1230.92 95.8011 1227.08 97.7149 1222.29 97.5075C1217.53 97.3215 1215.05 95.1791 1214.29 90.5648L1207.69 50.652C1206.25 41.9603 1204.75 37.2875 1203.6 34.773C1202.5 37.2875 1201.14 41.9709 1199.95 50.6679L1190.87 116.48C1188.54 133.412 1184.81 133.433 1181.22 133.455C1177.65 133.471 1173.91 133.497 1169.94 116.592L1167.13 104.589C1165.44 97.38 1163.83 93.579 1162.63 91.5801C1161.63 93.5949 1160.37 97.4118 1159.41 104.631L1152.7 154.315C1148.87 182.644 1145.62 182.67 1141.46 182.628C1137.32 182.617 1134.07 182.607 1131.74 154.256L1121.31 26.7457C1120.39 15.4811 1119.19 9.29851 1118.15 5.90687C1116.88 9.28787 1115.27 15.4598 1113.58 26.7138L1104.06 90.3256C1103.37 95.009 1100.92 97.1779 1096.15 97.3693C1091.4 97.5713 1087.48 95.6363 1083.53 91.1442L1082.23 89.6557C1080.25 87.4017 1078.41 86.9499 1078.39 86.8914C1078.11 86.9552 1076.35 87.4389 1074.74 89.7248L1073.05 92.1277C1070.09 96.3221 1066.76 98.188 1061.89 98.087C1057.13 98.0126 1054.23 96.0722 1052.45 91.8034L1046.31 76.9717C1044.49 72.5487 1042.8 70.3798 1041.68 69.3272C1040.77 70.4064 1039.53 72.6072 1038.61 77.062L1028.56 125.688C1025.84 138.813 1021.83 138.829 1018.59 138.84C1015.42 138.893 1011.34 138.877 1007.66 125.773L999.646 97.2577C998.71 93.9564 997.441 92.4467 996.616 91.7715C995.6 92.4094 993.887 93.8767 991.983 97.1301L987.667 104.503C985.335 108.496 982.066 110.356 977.385 110.356C972.705 110.356 969.436 108.496 967.104 104.503L958.885 90.485C957.473 88.0609 955.743 87.4496 955.743 87.3433C955.331 87.439 953.459 87.9971 951.38 90.3681L948.841 93.2547C945.494 97.0769 941.813 98.7887 937.1 98.6558C932.451 98.5176 929.675 96.6091 928.374 92.6487L923.439 77.7265C921.932 73.1707 920.409 70.9114 919.345 69.8056C918.362 70.9167 916.965 73.1866 915.728 77.7531L906.906 110.362C904.51 119.229 900.782 120 897.164 120.026C893.499 120.037 889.723 119.346 886.073 110.521L878.346 91.8459C877.363 89.4537 875.998 88.55 875.347 88.2417C874.57 88.5181 872.825 89.3421 870.794 91.6599L869.366 93.2919C866.018 97.1035 862.226 98.8046 857.64 98.677C852.991 98.5388 850.215 96.6357 848.882 92.6912L840.346 67.1742C838.743 62.3844 837.172 59.9869 836.078 58.8014C835.11 59.9975 833.761 62.411 832.635 67.2167L825.717 96.742C822.131 112.01 818.196 111.972 814.848 111.988C811.437 111.978 807.565 111.967 804.805 96.6782L797.966 58.727C796.522 50.6998 795.031 46.4151 793.873 44.1292C792.794 46.4204 791.429 50.7104 790.223 58.7429L784.337 98.087C780.671 122.626 777.482 122.61 773.278 122.61C769.311 122.599 765.9 122.589 763.393 98.0285L759.839 63.235C758.506 50.2745 757.078 43.1085 755.904 39.1533C754.761 43.1138 753.349 50.2798 752.08 63.2403L745.781 127.756C742.576 160.63 739.323 160.912 735.23 160.912C730.787 160.891 727.725 161.188 724.821 127.745L718.221 51.7205C716.856 35.9956 715.412 27.2667 714.222 22.4238C713.08 27.2667 711.715 35.9956 710.478 51.7258L703.132 145.852C700.244 182.888 697.182 182.612 692.723 182.591C688.471 182.591 685.377 182.298 682.172 145.862L676.016 75.8074C675.46 69.5185 674.429 66.2067 673.556 64.4736C672.255 66.1748 670.399 69.4441 668.304 75.7011L660.974 97.4437C658.499 104.753 655.167 106.263 650.899 106.279C646.789 106.316 643.188 104.817 640.173 97.5288L634.048 82.7236C632.668 79.3798 631.192 77.8488 630.256 77.163C629.32 77.8435 627.813 79.3745 626.369 82.713L621.625 93.6853C620.038 97.3533 617.151 99.1129 612.549 99.2246C607.98 99.2724 604.33 97.7308 601.205 94.1743L596.461 88.7786C594.842 86.9445 593.128 86.3863 592.827 86.3385C592.351 86.3863 590.637 86.9445 589.035 88.7786L586.306 91.8884C582.546 96.1625 578.69 97.9594 573.993 97.8211C569.233 97.6457 566.711 95.5831 565.79 91.1389L557 48.6424C555.271 40.3016 553.637 35.8361 552.399 33.4492C551.399 35.8468 550.178 40.3335 549.273 48.685L539.42 138.356C536.802 162.225 533.391 162.23 529.424 162.241C525.394 162.262 522.046 162.267 518.476 138.404L510.416 84.5151C509.559 78.7791 508.353 75.7968 507.417 74.2658C506.227 75.7808 504.529 78.7259 502.689 84.4407L496.818 102.792C494.629 109.655 490.948 110.638 487.298 110.686C483.649 110.649 479.762 109.83 476.097 103.047L470.226 92.1968C468.909 89.7673 467.449 88.837 466.719 88.5127C465.958 88.8264 464.339 89.7301 462.642 92.1383C459.691 96.3326 456.422 98.1986 451.488 98.0976C446.728 98.0231 443.824 96.0828 442.047 91.814L436.224 77.7212C434.336 73.1706 432.622 70.922 431.48 69.8269C430.575 70.9485 429.385 73.2344 428.513 77.8222L424.451 99.4797C420.881 118.532 417.248 118.506 413.535 118.522C409.758 118.511 406.204 118.501 403.507 99.4266L393.781 30.3074C392.115 18.4261 390.481 11.8927 389.227 8.30434C388.196 11.9033 386.974 18.4473 386.038 30.334L375.772 161.842C373.424 191.979 370.156 191.989 366.014 192C365.935 192 365.856 192 365.776 192C361.746 192 358.525 191.447 354.828 161.901L346.72 97.2895C345.975 91.3993 344.848 88.3267 343.928 86.7425C342.69 88.3054 340.929 91.3409 338.993 97.1991L337.788 100.857C336.074 106.024 333.25 108.262 328.347 108.331C323.539 108.347 320.081 106.252 317.082 101.149L313.464 94.9664C311.782 92.1064 310.164 90.8677 309.259 90.3574C308.434 90.8837 307.022 92.1542 305.832 95.0408L299.898 109.378C296.059 118.655 292.14 119.463 288.585 119.351C284.968 119.314 281.255 118.501 279.065 109.171L271.767 78.0561C270.212 71.3898 268.641 67.8652 267.483 66.0152C266.451 67.8759 265.135 71.411 264.04 78.088L257.138 120.313C253.631 141.811 250.252 141.79 246.269 141.806C242.477 141.801 238.907 141.79 236.21 120.271L229.181 64.3194C227.785 53.2461 226.325 47.1805 225.151 43.8633C224.024 47.1858 222.66 53.2514 221.438 64.33L214.393 128.505C211.331 156.452 208.062 156.452 203.921 156.452C199.796 156.452 196.512 156.409 193.433 128.505L187.452 74.3136C186.785 68.2852 185.691 65.1275 184.786 63.4901C183.533 65.1009 181.724 68.2161 179.725 74.2179L175.028 88.2469C172.759 94.993 169.078 95.9658 165.429 96.003C161.669 96.003 157.908 95.1631 154.291 88.4808L149.182 79.0395C147.722 76.3443 146.199 75.2226 145.374 74.7761C144.549 75.2173 143.025 76.3443 141.566 79.0395L133.125 94.6527C131.316 98.0018 128.238 99.6711 123.731 99.7508C119.225 99.8199 115.64 98.2836 112.768 95.0195L107.31 88.7945C105.691 86.9604 103.978 86.4022 103.676 86.3544C103.2 86.4022 101.487 86.9604 99.884 88.7945L96.5045 92.6433C92.9346 96.7047 89.2058 98.4484 84.5093 98.2889C79.781 98.1347 77.1631 96.1838 76.0206 91.9681L68.1509 62.8841C66.3579 56.2762 64.6761 52.7889 63.4543 50.9602C62.4866 52.8049 61.2965 56.3188 60.4239 62.9479L53.522 115.741C51.2689 132.987 47.5401 133.008 43.9542 133.035C40.3843 133.035 36.6399 133.077 32.6097 115.869L24.1211 79.6349C23.4706 76.8227 22.2806 75.5894 21.5666 75.0844C20.5829 75.5363 18.7423 76.6686 16.521 79.3904L6.47753 91.713C5.98559 92.303 4.14513 92.6486 2.41564 92.4891C0.686271 92.303 -0.36097 91.697 0.114982 91.1069Z" fill="#FF8E2F"/>
</svg>
