<svg width="444" height="445" viewBox="0 0 444 445" fill="none" xmlns="http://www.w3.org/2000/svg">
<path fill-rule="evenodd" clip-rule="evenodd" d="M374.108 383.625C285.013 467.649 144.673 463.538 60.6501 374.443C-23.3732 285.349 -19.2622 145.009 69.8324 60.9854C158.927 -23.0379 299.267 -18.9269 383.29 70.1677C467.313 159.262 463.202 299.602 374.108 383.625ZM92.4561 344.442C159.911 415.968 272.578 419.269 344.104 351.814C415.631 284.358 418.931 171.692 351.476 100.165C284.021 28.6391 171.354 25.3387 99.8278 92.7937C28.3014 160.249 25.001 272.916 92.4561 344.442ZM109.916 327.975C168.277 389.859 265.755 392.714 327.638 334.353C389.521 275.992 392.377 178.515 334.016 116.632C275.655 54.7484 178.177 51.893 116.294 110.254C54.4108 168.615 51.5554 266.092 109.916 327.975Z" fill="#158061" fill-opacity="0.2"/>
</svg>
