<svg width="806" height="677" viewBox="0 0 806 677" fill="none" xmlns="http://www.w3.org/2000/svg">
<g opacity="0.2">
<path d="M527.987 144.49C525.757 144.28 523.526 144.07 521.506 141.631C439.561 79.9544 392.825 -21.1298 402.475 -123.652C408.558 -188.286 434.504 -248.802 479.473 -296.285C484.353 -300.322 491.254 -301.921 495.295 -297.044C499.336 -292.167 500.937 -285.271 496.057 -281.233C455.968 -237.788 430.441 -181.729 424.777 -121.553C415.757 -25.7169 456.641 65.8226 534.335 124.851C538.586 127.499 539.977 136.624 537.327 140.872C537.118 143.1 532.447 144.909 527.987 144.49Z" fill="#158061"/>
<path d="M671.428 198.464C664.738 197.834 660.697 192.957 661.326 186.271C661.955 179.584 666.835 175.547 673.526 176.176C785.038 186.672 894.342 125.008 944.136 26.2639C946.995 19.7876 953.896 18.1886 958.147 20.8372C964.628 23.6957 966.229 30.5918 963.579 34.8394C910.506 144.517 791.861 209.799 671.428 198.464Z" fill="#158061"/>
<path d="M678.956 118.217C607.588 111.5 544.037 69.542 509.347 7.81601C505.306 2.93868 508.166 -3.53762 513.046 -7.57529C517.926 -11.613 524.407 -8.75449 528.447 -3.87716C559.097 52.9715 616.376 89.8417 678.823 95.7193C783.644 105.585 878.805 26.8506 888.664 -77.9008C893.699 -131.391 876.011 -182.522 841.664 -223.98C837.623 -228.857 838.252 -235.543 843.132 -239.581C848.012 -243.619 854.703 -242.989 858.744 -238.112C897.342 -194.006 916.421 -133.749 910.967 -75.8016C902.079 42.5321 797.158 129.342 678.956 118.217Z" fill="#158061"/>
<path d="M687.572 26.8486C620.665 20.5512 570.154 -40.4155 576.447 -107.278C582.74 -174.141 643.74 -224.612 710.648 -218.314C777.555 -212.017 828.066 -151.05 821.773 -84.1876C815.48 -17.325 754.48 33.146 687.572 26.8486ZM708.55 -196.027C652.794 -201.274 603.994 -160.898 598.749 -105.179C593.505 -49.4601 633.914 -0.686747 689.67 4.5611C745.426 9.80894 794.226 -30.5679 799.471 -86.2867C804.715 -142.005 764.306 -190.779 708.55 -196.027Z" fill="#158061"/>
</g>
<g opacity="0.4">
<path opacity="0.6" d="M655.43 367.819C432.406 346.828 255.709 168.305 236.123 -53.8908C236.542 -58.3483 236.962 -62.8058 239.402 -64.8247C242.052 -69.0723 246.722 -70.8811 251.182 -70.4613L344.091 -77.4562C353.221 -78.8453 359.283 -71.5293 360.884 -64.6331C374.773 98.5659 504.37 227.686 669.408 243.219C727.394 248.677 784.409 240.552 836.201 216.197C843.311 212.369 852.022 215.437 855.644 224.772L892.697 309.205C894.508 313.873 894.088 318.33 893.878 320.559C891.228 324.807 888.788 326.825 886.348 328.844C811.205 362.245 733.489 375.166 655.43 367.819ZM258.215 -49.563C281.291 159.47 447.885 325.8 657.528 345.532C728.896 352.249 801.942 341.136 867.535 313.583L836.124 240.923C782.311 262.84 723.066 270.755 665.08 265.297C493.351 249.133 355.253 114.717 337.532 -55.5885L258.215 -49.563Z" fill="#158061"/>
</g>
</svg>
