<svg width="1440" height="156" viewBox="0 0 1440 156" fill="none" xmlns="http://www.w3.org/2000/svg">
<path opacity="0.3" d="M1448.88 81.9756L1438.61 91.9877C1434.93 95.577 1431.1 97.093 1426.24 97.0023C1421.35 96.8814 1418.69 95.171 1417.59 91.4564L1408.91 62.0162C1408.61 60.9966 1408.31 60.0598 1408.02 59.1992C1406.65 55.2068 1402.29 55.4465 1401.45 59.5804C1401.29 60.3448 1401.14 61.1668 1400.99 62.0507L1393.94 104.945C1391.83 117.774 1387.87 117.8 1384.37 117.817C1380.86 117.873 1376.9 117.873 1372.56 105.075L1364.51 81.4443C1364.27 80.7358 1363.97 80.1649 1363.65 79.7058C1362.76 78.4139 1360.98 78.3123 1359.63 79.1108C1358.8 79.601 1357.83 80.2872 1356.77 81.2456L1353.32 84.3728C1350.92 86.541 1347.46 87.6425 1343.03 87.6425C1338.62 87.6425 1335.15 86.541 1332.75 84.3728L1327.17 79.3149C1327.06 79.2214 1326.96 79.1311 1326.86 79.0442C1324.85 77.33 1320.96 77.2362 1319.48 79.4272L1310.85 92.1129C1308.45 95.6504 1305.19 97.2269 1300.3 97.2269C1295.42 97.2269 1292.16 95.6504 1289.76 92.1129L1284.54 84.4419C1283.91 83.5236 1283.3 82.7822 1282.73 82.1843C1281.27 80.6741 1278.88 80.7636 1277.75 82.5259C1277.4 83.0754 1277.05 83.7306 1276.72 84.511L1271.92 95.9096C1267.03 107.498 1263.07 107.455 1259.6 107.425C1256.11 107.39 1252.17 107.351 1250.55 95.6979L1244.43 51.6715C1244.27 50.5005 1244.11 49.3938 1243.94 48.3478C1243.1 43.0129 1237.85 43.013 1237.01 48.3479C1236.85 49.3951 1236.68 50.5033 1236.52 51.6758L1229.32 103.818C1226.38 125.108 1222.88 125.108 1218.82 125.112C1214.86 125.086 1211.26 125.117 1207.9 103.835L1200.72 58.375C1200.56 57.3792 1200.4 56.4451 1200.24 55.5688C1199.36 50.8534 1194.55 50.7507 1193.45 55.4185C1193.23 56.3343 1193.02 57.314 1192.8 58.3621L1185.74 92.6701C1183.08 105.585 1179.12 105.598 1175.62 105.611C1172.26 105.611 1168.16 105.641 1164.36 92.7392L1156.9 67.4585C1156.68 66.729 1156.45 66.0772 1156.22 65.4951C1155.16 62.8834 1151.96 62.6881 1150.4 65.0355C1149.95 65.7129 1149.49 66.4951 1149.02 67.398L1142.95 79.0471C1140.94 82.9215 1137.95 84.5887 1132.97 84.6276C1127.8 84.6319 1124.65 83.0424 1121.83 79.2069L1118.13 74.1836C1117.44 73.249 1116.77 72.5083 1116.15 71.922C1114.71 70.5518 1112.44 70.6472 1111.34 72.3101C1110.99 72.8473 1110.64 73.4935 1110.31 74.27L1109.08 77.2416C1104.36 88.5582 1100.41 88.5236 1096.94 88.4934C1093.46 88.4631 1089.51 88.4286 1087.73 77.0516L1079.44 24.5551C1079.24 23.2811 1079.04 22.0775 1078.84 20.9402C1077.87 15.4692 1072.53 15.6168 1071.89 21.1355C1071.77 22.2202 1071.64 23.3647 1071.52 24.5724L1061.03 131.423C1058.77 154.28 1055.45 154.289 1051.21 154.302C1047.01 154.311 1043.65 154.328 1039.6 131.483L1029.65 75.3109C1029.48 74.3626 1029.31 73.4782 1029.14 72.6533C1028.21 68.2643 1023.65 68.1462 1022.47 72.4752C1022.23 73.3456 1021.99 74.2834 1021.75 75.2937L1017.6 92.8904C1015.69 101.028 1012.05 101.736 1008.18 101.775C1004.51 101.827 1000.49 101.183 996.285 93.102L990.331 81.6516C989.911 80.8419 989.449 80.2103 988.996 79.7188C987.928 78.5599 986.167 78.5132 984.885 79.4298C984.178 79.9355 983.383 80.6235 982.561 81.5566C979.852 84.6146 976.283 85.945 971.627 85.9882C966.874 85.9536 963.678 84.5023 961.586 81.4097L955.584 72.5941C954.945 71.6573 954.322 70.9008 953.739 70.2908C952.275 68.7598 949.857 68.8695 948.745 70.6732C948.403 71.2287 948.065 71.8886 947.748 72.6718L941.746 87.5777C937.317 98.6091 933.246 98.5918 929.888 98.553C926.578 98.527 922.474 98.4968 920.382 87.4179L912.141 43.6333C911.933 42.5293 911.725 41.493 911.517 40.5203C910.463 35.587 905.478 35.701 904.669 40.6804C904.518 41.6104 904.369 42.5978 904.224 43.6463L894.15 116.504C891.944 132.541 888.294 132.559 884.433 132.576C880.572 132.559 876.922 132.615 872.753 116.595L863.766 82.0663C863.593 81.4045 863.369 80.8543 863.121 80.3975C862.31 78.9055 860.37 78.7552 858.922 79.6419C858.075 80.1607 857.09 80.8715 856.012 81.8417L853.222 84.3684C850.821 86.5367 847.366 87.6381 842.937 87.6381C838.525 87.6381 835.053 86.5367 832.652 84.3684L827.802 79.9844C826.751 79.0323 825.775 78.3962 824.969 77.9729C823.863 77.3925 822.502 77.4192 821.564 78.2435C821.064 78.6832 820.54 79.291 820.08 80.1269L815.23 89.0419C812.18 94.657 808.303 95.4344 804.572 95.4344H804.555C800.824 95.4301 796.947 94.6526 794.027 89.0203L787.766 76.9911C787.309 76.1196 786.853 75.3806 786.41 74.7544C785.002 72.7617 782.212 72.8184 780.968 74.9177C780.613 75.5156 780.258 76.2116 779.914 77.0214L772.419 94.6872C767.277 106.777 763.319 106.755 759.847 106.695C756.359 106.656 752.401 106.613 751.055 94.4496L744.761 37.5302C744.593 36.0058 744.424 34.5628 744.255 33.1969C743.524 27.3184 737.956 27.3525 737.295 33.2392C737.143 34.5938 736.993 36.0242 736.844 37.5345L729.333 114.012C726.349 144.277 723.185 144.121 718.692 144.057C714.328 144.057 711.165 143.832 707.92 114.025L701.156 52.2633C701 50.8335 700.842 49.4836 700.682 48.2091C699.971 42.5302 694.565 42.4948 693.775 48.1632C693.596 49.45 693.417 50.8137 693.239 52.2589L686.799 104.678C683.733 129.6 680.391 129.6 676.157 129.604C676.141 129.604 676.109 129.604 676.092 129.604C671.891 129.604 668.565 129.457 665.386 104.686L661.752 76.4167C661.612 75.3342 661.469 74.3148 661.323 73.3548C660.556 68.3111 655.548 68.1773 654.484 73.1667C654.268 74.1762 654.052 75.2524 653.836 76.3994L647.817 108.366C644.913 123.782 641.28 123.786 637.419 123.791C633.671 123.786 629.924 123.803 626.42 108.392L619.428 77.5569C619.235 76.706 619.037 75.9208 618.836 75.1962C617.788 71.4261 613.635 71.3148 612.341 75.0076C612.071 75.7779 611.799 76.6183 611.528 77.5353L604.455 101.525C601.941 110.064 598.242 110.785 594.365 110.802C594.317 110.802 594.284 110.802 594.235 110.802C590.407 110.802 586.66 110.029 583.123 101.62L574.396 80.8871C574.073 80.1204 573.686 79.527 573.293 79.0689C572.359 77.9802 570.76 77.9184 569.51 78.6237C568.69 79.087 567.717 79.7528 566.658 80.7057L565.198 82.0317C561.97 84.9559 558.401 86.2949 553.534 86.1826C548.813 86.0875 545.877 84.6362 544.304 81.6171L536.404 66.4435C535.941 65.5579 535.482 64.7956 535.037 64.1398C533.529 61.9175 530.465 62.0592 529.33 64.493C529.056 65.0792 528.789 65.7433 528.536 66.4953L519.516 92.9897C516.758 101.097 513.06 101.779 509.183 101.788C509.15 101.788 509.134 101.788 509.102 101.788C505.257 101.788 501.542 101.08 498.2 93.0459L493.155 80.9217C492.839 80.1535 492.456 79.5586 492.065 79.0992C491.136 78.0062 489.535 77.9437 488.286 78.6491C487.462 79.1141 486.488 79.7829 485.434 80.7403L482.838 83.0856C479.983 85.6642 476.463 86.9384 471.775 86.8348C467.184 86.7786 464.004 85.4656 462.057 82.8265L453.606 71.4408C452.946 70.5422 452.275 69.8804 451.659 69.3949C450.516 68.4925 448.911 68.4976 447.768 69.4002C447.155 69.8848 446.482 70.5448 445.819 71.4408L441.407 77.4317C437.367 82.8956 433.312 83.6255 429.629 83.5564C425.898 83.5089 422.183 82.6969 420.221 77.1466L412.028 53.978C411.712 53.0879 411.397 52.2838 411.084 51.5574C409.698 48.3345 405.876 48.4616 404.788 51.7969C404.569 52.468 404.354 53.2031 404.144 54.0082L393.86 93.5167C391.799 101.412 388.02 102.103 384.305 102.138C380.574 102.198 376.632 101.551 372.56 93.7111L366.282 81.6603C365.856 80.8398 365.387 80.202 364.928 79.7075C363.859 78.5582 362.107 78.5177 360.83 79.4309C360.123 79.9369 359.327 80.6258 358.495 81.5609L356.76 83.5132C354.618 85.9277 351.26 87.1674 346.783 87.2019C346.718 87.2019 346.653 87.2019 346.605 87.2019C342.208 87.2019 338.656 86.0141 336.06 83.6644L334.73 82.455C333.644 81.4725 332.655 80.7396 331.797 80.1941C330.251 79.2113 328.142 79.4285 327.437 81.1192C327.25 81.5659 327.09 82.0891 326.976 82.7012L317.242 134.386C313.171 156.025 309.699 156.012 305.611 155.999C301.556 155.986 298.052 155.978 295.829 134.321L285.171 30.7187C285.047 29.5112 284.918 28.371 284.786 27.2943C284.128 21.925 278.92 21.7596 277.907 27.0734C277.691 28.2095 277.473 29.4173 277.255 30.7014L270.393 71.0694C268.041 84.9213 264.228 84.9386 260.562 84.9559C256.864 84.9688 253.084 84.9861 249.012 71.1644L246.141 61.4115C245.858 60.4539 245.576 59.5707 245.297 58.7561C243.939 54.7841 239.557 55.0074 238.676 59.1119C238.521 59.8365 238.369 60.6133 238.224 61.446L228.945 114.919C226.042 131.621 222.392 131.626 218.531 131.63C214.832 131.647 211.02 131.643 207.548 114.945L200.8 82.5155C200.669 81.8943 200.492 81.3665 200.29 80.9186C199.549 79.2779 197.481 79.0771 195.958 80.0355C195.103 80.573 194.115 81.2982 193.03 82.2736L190.71 84.3728C188.309 86.541 184.854 87.6425 180.425 87.6425C175.996 87.6425 172.541 86.541 170.156 84.3728L164.819 79.5438C163.802 78.6244 162.814 77.999 161.991 77.5864C160.976 77.0776 159.76 77.0961 158.848 77.774C158.269 78.2051 157.65 78.8166 157.114 79.6647L149.165 92.2382C145.823 97.5336 141.784 98.2852 138.28 98.2852C138.231 98.2852 138.199 98.2852 138.15 98.2852C134.597 98.2679 130.623 97.525 127.979 92.1345L121.441 78.8311C121.005 77.9396 120.568 77.1704 120.142 76.5071C118.682 74.2335 115.606 74.3475 114.426 76.7786C114.13 77.3883 113.838 78.0817 113.557 78.87L108.837 92.2598C104.197 105.36 100.434 105.3 96.7349 105.3C93.0687 105.269 89.2727 105.244 87.4559 92.0956L79.5557 34.9516C79.3394 33.3824 79.1239 31.903 78.9098 30.5081C78.0234 24.7327 72.544 24.8919 72.0026 30.7098C71.8779 32.0506 71.7565 33.4688 71.6393 34.9689L65.1991 117.057C62.928 145.84 59.7484 145.849 55.336 145.858C50.8263 145.866 47.7441 145.858 43.7696 117.1L36.8428 66.9488C36.716 66.0335 36.5838 65.1755 36.4476 64.3711C35.6823 59.8516 31.0548 59.6023 29.7521 63.9971C29.4853 64.897 29.2151 65.8662 28.9426 66.9099L21.2046 96.6741C19.6473 102.678 16.4191 103.952 12.0716 104.013C7.5456 104.108 3.99295 102.902 -0.0301361 96.9851L-10.9476 80.9865C-11.2721 80.4984 -10.0554 80.0319 -8.22232 79.9412C-6.34055 79.8591 -4.621 80.1788 -4.29656 80.6668L6.5885 96.6741C7.24733 97.6417 7.88256 98.4455 8.47845 99.1125C10.1203 100.95 12.9309 100.71 13.8412 98.4198C14.0577 97.8751 14.2605 97.2561 14.44 96.5531L22.178 66.789C26.3471 50.7817 29.9159 50.7385 33.8579 50.8076C37.7188 50.8249 41.3688 50.8379 43.575 66.8797L50.5018 117.031C50.7181 118.6 50.9336 120.079 51.1477 121.474C52.0341 127.25 57.5135 127.09 58.0548 121.273C58.1796 119.932 58.301 118.514 58.4182 117.014L64.8746 34.9257C67.1457 6.142 70.3253 6.13338 74.7215 6.12473C79.1015 6.10313 82.3134 6.10312 86.2878 34.8782L94.188 92.0222C94.2936 92.7867 94.407 93.5016 94.5265 94.17C95.2461 98.1945 99.5335 98.5714 101.078 94.7862C101.414 93.9628 101.757 93.064 102.104 92.0827L106.841 78.6972C109.437 71.3761 113.249 70.7498 116.948 70.7325C116.996 70.7325 117.045 70.7325 117.094 70.7325C120.744 70.7325 124.588 71.4106 128.125 78.5979L134.662 91.9013C135.066 92.7206 135.486 93.3985 135.9 93.9586C137.115 95.6038 139.449 95.6529 140.827 94.1416C141.36 93.5572 141.921 92.834 142.481 91.9402L150.43 79.3667C152.198 76.5721 155.297 75.177 159.936 75.1036C164.592 75.0431 168.275 76.3173 171.276 79.0341L176.613 83.8631C177.8 84.932 179.028 85.4675 179.748 85.6992C180.127 85.8213 180.53 85.8338 180.914 85.7275C181.689 85.5127 182.979 84.9781 184.205 83.8631L186.524 81.7639C190.499 78.1616 194.425 76.6067 199.324 76.7752C204.19 76.9263 206.721 78.667 207.5 82.4161L214.248 114.845C214.464 115.879 214.681 116.844 214.899 117.742C215.996 122.286 220.707 122.215 221.64 117.635C221.817 116.763 221.993 115.83 222.164 114.832L231.444 61.3596C233.828 47.6028 237.64 47.5855 241.307 47.5682C244.957 47.5552 248.785 47.5336 252.841 61.269L255.712 71.0219C256.006 72.0157 256.298 72.9299 256.586 73.7707C257.945 77.7458 262.295 77.5214 263.156 73.4098C263.313 72.6598 263.466 71.8537 263.612 70.9873L270.474 30.6193C274.384 7.60191 277.709 7.58034 281.959 7.61488C286.193 7.62352 289.519 7.63214 291.903 30.6669L302.561 134.269C302.677 135.397 302.798 136.463 302.922 137.469C303.568 142.713 308.688 142.921 309.775 137.751C310.002 136.67 310.231 135.519 310.462 134.295L320.195 82.6105C320.909 78.8052 323.407 77.043 328.29 76.8875C333.14 76.7233 337.147 78.2955 341.186 81.9453L342.517 83.1547C342.542 83.1779 342.568 83.2009 342.594 83.2236C344.513 84.9254 348.477 85.0221 350.173 83.0986L351.909 81.1463C354.926 77.7384 358.333 76.2223 363.313 76.3044C368.18 76.3648 371.149 77.9414 372.965 81.4097L379.243 93.4605C379.729 94.3958 380.205 95.207 380.663 95.9104C382.254 98.3525 385.525 98.1054 386.508 95.3612C386.718 94.7727 386.921 94.1171 387.111 93.3871L397.396 53.8787C400.17 43.2144 404.274 43.2014 407.584 43.1928C410.828 43.1496 414.997 43.1625 418.761 53.8095L426.953 76.9782C427.217 77.7179 427.507 78.347 427.806 78.8816C428.844 80.7381 431.277 80.8857 432.797 79.3975C433.42 78.7876 434.092 78.0276 434.788 77.0818L439.2 71.091C441.585 67.8472 444.927 66.3355 449.712 66.3355C454.498 66.3355 457.84 67.8472 460.224 71.091L468.627 82.4809C469.904 84.2228 473.824 84.5355 475.535 83.2171C475.785 83.024 476.041 82.8109 476.301 82.5759L478.896 80.2306C482.319 77.125 486.082 75.7342 490.9 75.8422C495.654 75.9545 498.492 77.5051 499.823 80.723L504.868 92.8472C505.234 93.7261 505.6 94.4999 505.962 95.1808C507.354 97.8051 510.69 97.725 511.9 95.0119C512.187 94.3667 512.473 93.6413 512.752 92.8256L521.771 66.3311C524.221 59.1266 528.033 58.5003 531.732 58.4787C535.479 58.4701 539.34 59.0316 543.071 66.2016L550.971 81.3752C551.399 82.2019 551.897 82.8098 552.38 83.2548C553.322 84.1239 554.725 84.1533 555.857 83.5513C556.668 83.1204 557.643 82.4785 558.693 81.5264L560.153 80.2003C563.576 77.1034 567.453 75.7213 572.141 75.8249C576.894 75.9372 579.733 77.4835 581.096 80.6884L589.823 101.421C590.199 102.313 590.573 103.104 590.94 103.803C592.388 106.565 595.866 106.428 596.988 103.518C597.234 102.881 597.475 102.173 597.707 101.386L604.78 77.3971C608.446 64.9922 612.469 65.0224 615.892 65.0094C619.38 65.0181 623.338 65.0267 626.161 77.449L633.152 108.284C633.379 109.284 633.606 110.213 633.833 111.075C634.973 115.4 639.536 115.322 640.516 110.958C640.703 110.125 640.887 109.231 641.069 108.271L647.087 76.3044C650.834 56.3666 654.095 56.3795 658.394 56.3795C662.45 56.3882 665.937 56.3968 668.5 76.3519L672.134 104.622C672.302 105.92 672.472 107.147 672.642 108.306C673.453 113.826 678.804 113.81 679.583 108.286C679.746 107.131 679.907 105.91 680.067 104.617L686.507 52.1985C689.784 25.4881 693.109 25.2591 697.295 25.2591C701.837 25.2764 704.968 25.0345 707.936 52.2071L714.685 113.977C714.852 115.508 715.02 116.958 715.189 118.33C715.915 124.221 721.481 124.191 722.145 118.293C722.299 116.93 722.451 115.492 722.601 113.973L730.112 37.4956C733.065 7.40321 736.195 7.62782 740.754 7.64511C745.101 7.64511 748.265 7.88266 751.542 37.487L757.836 94.4065C757.913 95.1031 758 95.7547 758.093 96.3643C758.685 100.21 762.781 100.72 764.485 97.2226C764.886 96.4009 765.298 95.494 765.72 94.4928L773.214 76.827C775.745 70.888 779.152 69.6613 783.515 69.6483C787.717 69.6181 791.399 70.8361 794.482 76.7579L800.743 88.7871C801.19 89.6465 801.646 90.3586 802.091 90.9481C803.388 92.665 805.85 92.6698 807.177 90.9763C807.642 90.3831 808.122 89.6648 808.595 88.7957L813.445 79.8807C815.067 76.9004 818.02 75.4707 822.724 75.38C827.396 75.3411 831.127 76.5937 834.323 79.4833L839.174 83.8674C840.347 84.9245 841.57 85.4599 842.292 85.6957C842.682 85.8233 843.097 85.8378 843.492 85.7269C844.27 85.5089 845.549 84.9739 846.765 83.8674L849.556 81.3406C853.4 77.8679 857.342 76.408 862.144 76.5203C867.011 76.6628 869.59 78.3387 870.531 81.9496L879.518 116.478C879.791 117.526 880.062 118.498 880.33 119.401C881.632 123.794 886.267 123.548 887.026 119.03C887.162 118.223 887.293 117.362 887.418 116.443L897.492 43.5858C900.169 24.1922 903.656 24.1879 907.712 24.1793C911.832 24.162 915.255 24.1577 918.905 43.5469L927.146 87.3315C927.283 88.0605 927.429 88.7348 927.581 89.3584C928.442 92.8906 932.369 93.1998 933.937 89.9192C934.299 89.1612 934.67 88.3217 935.046 87.3919L941.049 72.4818C943.287 66.9056 947.051 66.1065 950.782 66.0677C954.513 66.0979 958.487 66.7631 962.235 72.2745L968.237 81.0901C968.841 81.976 969.475 82.6165 970.057 83.0773C971.095 83.8984 972.538 83.9052 973.647 83.1847C974.353 82.727 975.163 82.0715 975.991 81.1376C979.008 77.7297 982.35 76.2137 987.395 76.2957C992.262 76.3562 995.23 77.9327 997.047 81.4011L1003 92.8515C1003.5 93.8056 1003.99 94.6352 1004.45 95.3563C1006.08 97.8623 1009.4 97.5796 1010.33 94.7418C1010.52 94.1508 1010.71 93.4956 1010.88 92.7694L1015.04 75.1727C1018.69 59.6924 1022.4 59.714 1026.2 59.7011C1030.06 59.7097 1033.69 59.7183 1036.45 75.2159L1046.4 131.375C1046.61 132.587 1046.82 133.731 1047.03 134.81C1048.08 140.127 1053.33 139.934 1053.97 134.552C1054.08 133.543 1054.2 132.478 1054.31 131.354L1064.81 24.5033C1067.21 0.0172577 1070.55 0.00863647 1074.78 0C1074.86 0 1074.95 0 1075.03 0C1079.15 0 1082.44 0.449188 1086.22 24.4557L1094.51 76.9523C1094.63 77.6902 1094.75 78.3736 1094.89 79.0067C1095.65 82.6123 1099.59 82.9986 1101.21 79.6888C1101.6 78.8923 1102 78.0078 1102.41 77.0257L1103.64 74.054C1105.4 69.8557 1108.28 68.0373 1113.3 67.9811C1118.21 67.9682 1121.75 69.6699 1124.81 73.8164L1128.51 78.8398C1129.18 79.7412 1129.84 80.4443 1130.44 80.9916C1131.79 82.2028 1133.84 82.1608 1135 80.7723C1135.44 80.2458 1135.89 79.5912 1136.31 78.7793L1142.38 67.1302C1146.31 59.5931 1150.31 58.9365 1153.95 59.0272C1157.65 59.0575 1161.44 59.7183 1163.68 67.2987L1171.14 92.5794C1171.42 93.5059 1171.69 94.3577 1171.96 95.1407C1173.27 98.9465 1177.53 98.7922 1178.51 94.8879C1178.69 94.1677 1178.87 93.391 1179.04 92.5535L1186.1 58.2455C1189.69 40.7783 1193.14 40.7956 1197.21 40.7826C1201.09 40.7869 1204.74 40.7956 1207.5 58.28L1214.68 103.74C1214.87 104.929 1215.06 106.046 1215.25 107.097C1216.18 112.253 1221.28 112.206 1222.11 107.033C1222.27 105.999 1222.44 104.899 1222.6 103.732L1229.8 51.5894C1232.93 28.883 1236.28 28.883 1240.51 28.883C1244.73 28.883 1248.08 28.9175 1251.23 51.5894L1257.35 95.6202C1257.45 96.3364 1257.56 97.0027 1257.67 97.6226C1258.37 101.323 1262.38 101.755 1264.04 98.3756C1264.43 97.5726 1264.83 96.6831 1265.25 95.6979L1270.05 84.2993C1272.37 78.8182 1276.13 78.0278 1279.86 77.9975C1283.71 77.9975 1287.55 78.68 1291.25 84.1093L1296.48 91.7803C1297.07 92.6523 1297.67 93.3216 1298.24 93.8342C1299.45 94.9345 1301.28 94.9361 1302.5 93.8352C1303.06 93.3221 1303.67 92.6522 1304.26 91.7803L1312.89 79.0946C1314.74 76.3735 1317.89 75.0172 1322.5 74.9524C1327.1 74.8963 1330.77 76.1445 1333.71 78.7966L1339.29 83.8545C1340.46 84.9115 1341.68 85.447 1342.4 85.6828C1342.79 85.8104 1343.21 85.8248 1343.6 85.7139C1344.38 85.4959 1345.66 84.961 1346.88 83.8545L1350.33 80.7273C1353.98 77.4274 1357.8 76.0107 1362.6 76.1402C1367.43 76.2655 1370.11 77.8507 1371.28 81.2758L1379.32 104.907C1379.65 105.872 1379.98 106.756 1380.3 107.564C1381.78 111.293 1385.99 110.993 1386.81 107.067C1386.95 106.381 1387.09 105.645 1387.22 104.855L1394.28 61.96C1396.58 47.9483 1400.39 47.931 1404.06 47.9094C1407.71 47.9094 1411.54 47.8749 1415.66 61.8564L1424.34 91.2966C1424.54 91.984 1424.79 92.5552 1425.06 93.0293C1425.93 94.5488 1427.93 94.6895 1429.39 93.7193C1430.19 93.1842 1431.11 92.4635 1432.11 91.4953L1442.38 81.4832C1442.88 81.0037 1444.76 80.723 1446.53 80.8526C1448.3 81.0037 1449.37 81.4961 1448.88 81.9756Z" fill="white"/>
</svg>
