<svg width="660" height="660" viewBox="0 0 660 660" fill="none" xmlns="http://www.w3.org/2000/svg">
<path fill-rule="evenodd" clip-rule="evenodd" d="M556.018 569.662C423.624 694.52 215.079 688.411 90.2211 556.017C-34.6372 423.623 -28.5282 215.079 103.866 90.2203C236.26 -34.638 444.804 -28.529 569.663 103.865C694.521 236.259 688.412 444.804 556.018 569.662ZM145.968 503.435C241.786 605.037 401.826 609.725 503.428 513.907C605.029 418.089 609.717 258.048 513.899 156.447C418.081 54.8456 258.041 50.1575 156.439 145.976C54.8379 241.794 50.1497 401.834 145.968 503.435ZM163.428 486.969C250.152 578.927 395.003 583.171 486.961 496.447C578.92 409.722 583.163 264.872 496.439 172.913C409.715 80.955 264.864 76.7118 172.906 163.436C80.9472 250.16 76.704 395.011 163.428 486.969Z" fill="#158061" fill-opacity="0.2"/>
</svg>
