<svg width="1440" height="114" viewBox="0 0 1440 114" fill="none" xmlns="http://www.w3.org/2000/svg">
<path opacity="0.15" d="M1439.88 103.919L1429.76 89.8635C1426.12 84.8246 1422.35 82.6963 1417.55 82.8236C1412.73 82.9934 1410.11 85.3946 1409.02 90.6093L1400.46 131.939C1398.73 140.252 1397.1 144.642 1395.87 146.958C1394.86 144.63 1393.61 140.216 1392.65 131.89L1385.69 71.6727C1383.61 53.6638 1379.71 53.6274 1376.25 53.6031C1372.8 53.5243 1368.89 53.5243 1364.6 71.4908L1356.67 104.665C1355.95 107.66 1354.72 108.903 1354.04 109.382C1353.12 108.958 1351.28 107.83 1349.04 104.944L1345.63 100.554C1343.26 97.5097 1339.85 95.9635 1335.48 95.9635C1331.13 95.9635 1327.71 97.5097 1325.34 100.554L1319.84 107.654C1317.69 110.419 1315.77 111.104 1315.72 111.238C1315.31 111.092 1313.6 110.334 1312.25 107.496L1303.74 89.6876C1301.37 84.7215 1298.16 82.5083 1293.34 82.5083C1288.52 82.5083 1285.31 84.7215 1282.94 89.6876L1277.79 100.457C1276.03 104.143 1274.36 105.799 1273.39 106.52C1272.52 105.774 1271.18 104.083 1270.08 100.36L1265.34 84.3577C1260.53 68.0891 1256.62 68.1497 1253.2 68.1922C1249.76 68.2407 1245.87 68.2952 1244.27 84.6548L1238.24 146.461C1236.93 159.928 1235.49 167.344 1234.33 171.413C1233.18 167.344 1231.74 159.928 1230.43 146.455L1223.33 73.2553C1220.43 43.3678 1216.97 43.3678 1212.97 43.3617C1209.07 43.3981 1205.52 43.3556 1202.21 73.231L1195.12 137.05C1193.97 147.437 1192.62 153.046 1191.53 156.072C1190.35 153.046 1188.81 147.443 1187.31 137.069L1180.35 88.9054C1177.73 70.7753 1173.82 70.7571 1170.37 70.7389C1167.05 70.7389 1163.01 70.6964 1159.26 88.8084L1151.9 124.299C1150.89 129.131 1149.6 131.533 1148.67 132.703C1147.57 131.557 1145.89 129.186 1144.13 124.384L1138.14 108.03C1136.16 102.591 1133.21 100.25 1128.3 100.196C1123.2 100.19 1120.09 102.421 1117.31 107.806L1113.66 114.858C1111.82 118.399 1110.14 119.957 1109.17 120.624C1108.33 119.933 1107.01 118.326 1105.95 114.736L1104.73 110.565C1100.08 94.678 1096.19 94.7265 1092.77 94.7689C1089.33 94.8114 1085.44 94.8599 1083.68 110.831L1075.5 184.528C1073.89 199.045 1072.29 207.061 1071.04 211.481C1069.97 207.049 1068.7 199.027 1067.69 184.504L1057.34 34.5028C1055.12 2.4142 1051.84 2.40206 1047.66 2.38387C1043.52 2.37175 1040.21 2.3475 1036.21 34.4179L1026.4 113.275C1025.25 122.486 1023.92 127.403 1022.85 130.035C1021.66 127.415 1020.13 122.498 1018.61 113.299L1014.51 88.5962C1012.62 77.1724 1009.04 76.1779 1005.21 76.1234C1001.6 76.0506 997.63 76.9541 993.487 88.2991L987.614 104.374C986.51 107.399 985.119 108.655 984.367 109.14C983.487 108.679 981.791 107.478 979.951 104.507C977.279 100.214 973.759 98.3465 969.167 98.2858C964.479 98.3343 961.327 100.372 959.263 104.713L953.343 117.089C951.551 120.83 949.887 122.522 948.879 123.262C948.015 122.492 946.687 120.758 945.615 116.98L939.695 96.0544C935.327 80.568 931.311 80.5922 927.999 80.6468C924.735 80.6832 920.687 80.7256 918.623 96.2788L910.495 157.746C908.975 169.248 907.423 175.512 906.223 178.92C905.135 175.512 903.807 169.242 902.687 157.727L892.751 55.4465C890.575 32.9323 886.975 32.9081 883.167 32.8838C879.359 32.9081 875.759 32.8292 871.647 55.3191L862.783 103.792C862.207 106.926 861.055 108.279 860.367 108.824C859.391 108.351 857.487 107.12 855.135 104.107L852.383 100.56C850.015 97.5157 846.607 95.9695 842.239 95.9695C837.887 95.9695 834.463 97.5157 832.095 100.56L827.311 106.714C825.279 109.334 823.535 110.249 822.767 110.552C822.111 110.213 820.735 109.206 819.695 106.514L814.911 93.9989C811.903 86.1162 808.079 85.0247 804.399 85.0247H804.383C800.703 85.0308 796.879 86.1222 794 94.0292L787.823 110.916C786.271 115.137 784.72 117.144 783.712 118.071C782.768 117.132 781.344 115.112 780.08 110.874L772.688 86.0737C767.616 69.1017 763.712 69.132 760.288 69.2169C756.848 69.2715 752.944 69.3321 751.616 86.4072L745.408 166.313C744.032 184.134 742.56 194.024 741.36 199.512C740.208 194.024 738.832 184.134 737.6 166.307L730.192 58.9452C727.248 16.4575 724.128 16.6758 719.696 16.7667C715.392 16.7667 712.272 17.0821 709.072 58.927L702.4 145.63C701.168 161.729 699.792 170.619 698.64 175.524C697.44 170.619 695.984 161.729 694.592 145.636L688.24 72.0486C685.216 37.0616 681.92 37.0616 677.744 37.0556C677.728 37.0556 677.696 37.0556 677.68 37.0556C673.536 37.0556 670.256 37.2617 667.12 72.0365L663.536 111.723C662.464 123.565 661.168 130.029 660.08 133.558C658.864 130.041 657.296 123.583 655.728 111.747L649.792 66.8703C646.928 45.2293 643.344 45.2232 639.536 45.2172C635.84 45.2232 632.144 45.199 628.688 66.8339L621.792 110.122C620.624 117.447 619.264 121.303 618.208 123.329C617.056 121.315 615.52 117.471 614 110.152L607.024 76.475C604.544 64.4873 600.897 63.4747 597.073 63.4504C597.025 63.4504 596.992 63.4504 596.945 63.4504C593.169 63.4504 589.473 64.5358 585.985 76.3417L577.377 105.447C576.529 108.315 575.233 109.455 574.561 109.879C573.697 109.51 571.905 108.467 569.745 105.702L568.305 103.84C565.121 99.735 561.601 97.8553 556.801 98.013C552.145 98.1464 549.249 100.184 547.697 104.422L539.905 125.724C538.225 130.302 536.593 132.533 535.521 133.594C534.593 132.509 533.233 130.253 532.145 125.651L523.249 88.4567C520.529 77.0753 516.881 76.1173 513.057 76.1052C513.025 76.1052 513.009 76.1052 512.977 76.1052C509.185 76.1052 505.521 77.0996 502.225 88.3779L497.249 105.398C496.417 108.273 495.121 109.419 494.449 109.843C493.585 109.473 491.777 108.424 489.633 105.653L487.073 102.361C484.257 98.7406 480.785 96.9518 476.161 97.0974C471.633 97.1762 468.497 99.0195 466.577 102.724L458.241 118.708C456.753 121.594 455.201 122.74 454.401 123.165C453.617 122.74 452.065 121.6 450.561 118.708L446.209 110.298C442.225 102.627 438.225 101.603 434.593 101.7C430.913 101.766 427.249 102.906 425.313 110.698L417.233 143.223C415.665 149.511 414.098 152.743 412.978 154.392C411.954 152.731 410.609 149.487 409.458 143.181L399.314 87.717C397.282 76.6327 393.554 75.6625 389.89 75.614C386.21 75.5291 382.322 76.4387 378.306 87.4441L372.114 104.362C371.01 107.387 369.618 108.642 368.85 109.134C367.97 108.673 366.29 107.472 364.434 104.501L362.722 101.76C360.61 98.3707 357.298 96.6305 352.882 96.5819C352.818 96.5819 352.754 96.5819 352.706 96.5819C348.37 96.5819 344.866 98.2494 342.306 101.548L340.994 103.246C338.546 106.399 336.594 107.721 335.554 108.254C334.866 107.648 333.778 106.187 333.346 102.9L323.746 30.3431C319.73 -0.0355058 316.306 -0.0173008 312.274 0.000890034C308.274 0.0190808 304.818 0.031215 302.626 30.4341L292.114 175.876C291.122 189.543 289.874 197.068 288.802 201.209C287.538 197.074 285.938 189.561 284.306 175.9L277.538 119.23C275.218 99.7835 271.458 99.7593 267.842 99.735C264.194 99.7168 260.466 99.6926 256.45 119.096L253.618 132.788C251.938 140.877 250.306 145.188 249.09 147.468C248.082 145.176 246.802 140.846 245.81 132.739L236.658 57.6718C233.794 34.2239 230.194 34.2178 226.386 34.2117C222.738 34.1875 218.979 34.1936 215.555 57.6354L208.899 103.161C208.419 106.399 207.315 107.83 206.627 108.424C205.603 107.909 203.667 106.611 201.235 103.501L198.947 100.554C196.579 97.5097 193.171 95.9635 188.803 95.9635C184.435 95.9635 181.027 97.5097 178.675 100.554L173.411 107.333C171.587 109.679 169.859 110.662 169.027 110.965C168.291 110.625 166.883 109.576 165.811 107.163L157.971 89.5118C154.675 82.0778 150.691 81.0228 147.235 81.0228C147.187 81.0228 147.155 81.0228 147.107 81.0228C143.603 81.047 139.683 82.0899 137.075 89.6573L130.627 108.333C129.027 112.984 127.427 115.264 126.355 116.355C125.395 115.246 124.019 112.948 122.851 108.279L118.195 89.4815C113.619 71.0906 109.907 71.1755 106.259 71.1755C102.643 71.2179 98.8991 71.2543 97.1071 89.7119L89.3152 169.933C87.6512 187.118 86.0352 196.637 84.7392 201.907C83.6672 196.631 82.4512 187.099 81.5072 169.909L75.1552 54.6703C72.9153 14.2625 69.7793 14.2504 65.4273 14.2382C60.9793 14.2261 57.9394 14.2382 54.0194 54.6097L47.1874 125.014C46.2594 134.546 45.0434 139.658 44.0354 142.399C42.7874 139.676 41.1394 134.576 39.3954 125.069L31.7635 83.2845C30.2275 74.8561 27.0435 73.0673 22.7555 72.9824C18.2915 72.849 14.7876 74.5407 10.8196 82.8479L0.0516435 105.307C-0.268355 105.993 0.931643 106.648 2.73963 106.775C4.59562 106.89 6.29162 106.441 6.61161 105.756L17.3476 83.2845C19.3635 79.0703 21.1555 77.0693 22.2595 76.1476C23.1235 77.1117 24.3235 79.1734 25.0915 83.4543L32.7235 125.239C36.8355 147.71 40.3554 147.771 44.2434 147.674C48.0514 147.65 51.6514 147.631 53.8274 125.111L60.6593 54.7067C62.3233 37.5225 63.9393 28.0026 65.2353 22.7333C66.3073 28.0087 67.5233 37.5407 68.4673 54.731L74.8353 169.97C77.0752 210.378 80.2112 210.39 84.5472 210.402C88.8672 210.432 92.0352 210.432 95.9551 170.036L103.747 89.815C104.499 82.0657 105.651 77.9485 106.595 75.7777C107.859 77.9242 109.635 82.0111 111.555 89.7301L116.227 108.521C118.787 118.799 122.547 119.678 126.195 119.702C126.243 119.702 126.291 119.702 126.339 119.702C129.939 119.702 133.731 118.75 137.219 108.661L143.667 89.9848C144.931 86.3345 146.355 84.6852 147.235 83.9697C148.179 84.673 149.779 86.2981 151.379 89.9302L159.219 107.581C160.963 111.504 164.019 113.463 168.595 113.566C173.187 113.651 176.819 111.862 179.779 108.048L185.043 101.269C186.675 99.1772 188.387 98.5405 188.707 98.4859C189.187 98.5405 190.915 99.1772 192.531 101.269L194.819 104.216C198.739 109.273 202.611 111.456 207.443 111.219C212.243 111.007 214.739 108.564 215.507 103.3L222.162 57.7749C223.618 47.8609 225.122 42.531 226.29 39.6629C227.394 42.531 228.77 47.873 229.97 57.7931L239.122 132.86C241.474 152.173 245.234 152.197 248.85 152.222C252.45 152.24 256.226 152.27 260.226 132.988L263.058 119.296C264.77 111.074 266.386 106.738 267.602 104.459C268.61 106.757 269.874 111.11 270.85 119.345L277.618 176.015C281.474 208.328 284.754 208.358 288.946 208.31C293.122 208.298 296.402 208.286 298.754 175.948L309.266 30.5069C310.194 17.6581 311.41 10.6061 312.45 6.73755C313.73 10.594 315.362 17.6338 317.058 30.4705L326.658 103.028C327.362 108.37 329.826 110.844 334.642 111.062C339.426 111.292 343.378 109.085 347.362 103.961L348.674 102.264C350.674 99.6926 352.53 99.1772 352.546 99.1105C352.834 99.1832 354.61 99.735 356.226 102.342L357.938 105.083C360.914 109.867 364.274 111.996 369.186 111.88C373.986 111.796 376.914 109.582 378.706 104.713L384.898 87.7958C386.738 82.7509 388.434 80.2769 389.57 79.0763C390.482 80.3073 391.73 82.8176 392.658 87.8989L402.802 143.363C405.538 158.334 409.586 158.352 412.849 158.364C416.049 158.425 420.161 158.406 423.873 143.46L431.953 110.934C432.897 107.169 434.177 105.447 435.009 104.677C436.033 105.405 437.761 107.078 439.681 110.789L444.033 119.199C446.385 123.753 449.681 125.875 454.401 125.875C459.121 125.875 462.417 123.753 464.769 119.199L473.057 103.209C474.481 100.444 476.225 99.7472 476.225 99.6259C476.641 99.735 478.529 100.372 480.625 103.076L483.185 106.369C486.561 110.728 490.273 112.681 495.025 112.529C499.713 112.372 502.513 110.195 503.825 105.677L508.801 88.6568C510.321 83.4603 511.857 80.8833 512.929 79.6221C513.921 80.8894 515.329 83.4785 516.577 88.6871L525.473 125.881C527.889 135.995 531.649 136.875 535.297 136.905C538.993 136.917 542.801 136.129 546.481 126.063L554.273 104.762C555.265 102.033 556.641 101.002 557.297 100.651C558.081 100.966 559.841 101.906 561.889 104.55L563.329 106.411C566.705 110.759 570.529 112.699 575.153 112.553C579.841 112.396 582.641 110.225 583.985 105.726L592.593 76.6206C594.208 71.1573 595.793 68.4226 596.897 67.0704C597.872 68.4347 599.232 71.1876 600.368 76.6691L607.344 110.346C610.96 127.761 614.928 127.719 618.304 127.737C621.744 127.725 625.648 127.713 628.432 110.274L635.328 66.9855C636.784 57.8295 638.288 52.9422 639.456 50.3349C640.544 52.9483 641.92 57.8416 643.136 67.0037L649.072 111.88C652.768 139.87 655.984 139.852 660.224 139.852C664.224 139.84 667.664 139.828 670.192 111.814L673.776 72.1274C675.12 57.3444 676.56 49.1706 677.744 44.6593C678.896 49.1767 680.32 57.3504 681.6 72.1335L687.952 145.721C691.184 183.219 694.464 183.54 698.592 183.54C703.072 183.516 706.16 183.855 709.088 145.709L715.744 58.9937C717.12 41.0575 718.576 31.1011 719.776 25.5772C720.928 31.1011 722.304 41.0575 723.552 58.9997L730.96 166.362C733.872 208.607 736.96 208.292 741.456 208.267C745.744 208.267 748.864 207.934 752.096 166.374L758.304 86.4679C758.864 79.2946 759.904 75.517 760.784 73.5403C762.096 75.4806 763.968 79.2097 766.08 86.3466L773.472 111.147C775.968 119.484 779.328 121.206 783.632 121.224C787.776 121.267 791.408 119.557 794.448 111.244L800.623 94.3566C802.016 90.5426 803.503 88.7963 804.447 88.0141C805.391 88.7902 806.911 90.5365 808.367 94.3445L813.151 106.86C814.751 111.044 817.663 113.051 822.303 113.178C826.911 113.233 830.591 111.474 833.743 107.418L838.527 101.263C840.159 99.1711 841.887 98.5344 842.191 98.4799C842.671 98.5344 844.399 99.1711 846.015 101.263L848.767 104.81C852.559 109.685 856.447 111.735 861.183 111.577C865.983 111.377 868.527 109.024 869.455 103.955L878.319 55.4828C880.063 45.9691 881.711 40.8756 882.959 38.1531C883.967 40.8878 885.199 46.0055 886.111 55.5314L896.047 157.812C898.687 185.038 902.127 185.044 906.127 185.056C910.191 185.08 913.567 185.086 917.167 157.867L925.295 96.4C926.159 89.8574 927.375 86.4557 928.319 84.7094C929.519 86.4375 931.231 89.7968 933.087 96.3152L939.007 117.247C941.215 125.075 944.927 126.197 948.607 126.251C952.287 126.209 956.207 125.275 959.903 117.538L965.823 105.162C967.151 102.391 968.623 101.33 969.359 100.96C970.127 101.318 971.759 102.348 973.471 105.095C976.447 109.879 979.742 112.008 984.718 111.893C989.518 111.808 992.446 109.594 994.238 104.725L1000.11 88.6508C1002.01 83.4603 1003.74 80.8954 1004.89 79.6463C1005.81 80.9257 1007.01 83.5331 1007.89 88.766L1011.98 113.469C1015.58 135.201 1019.25 135.171 1022.99 135.189C1026.8 135.177 1030.38 135.165 1033.1 113.408L1042.91 34.5695C1044.59 21.0173 1046.24 13.5652 1047.5 9.47224C1048.54 13.5773 1049.77 21.0416 1050.72 34.5998L1061.07 184.601C1063.44 218.976 1066.73 218.988 1070.91 219C1070.99 219 1071.07 219 1071.15 219C1075.21 219 1078.46 218.369 1082.19 184.668L1090.37 110.971C1091.12 104.252 1092.25 100.748 1093.18 98.9407C1094.43 100.723 1096.21 104.186 1098.16 110.868L1099.37 115.04C1101.1 120.933 1103.95 123.486 1108.89 123.565C1113.74 123.583 1117.23 121.194 1120.25 115.373L1123.9 108.321C1125.6 105.059 1127.23 103.646 1128.14 103.064C1128.97 103.664 1130.4 105.113 1131.6 108.406L1137.58 124.76C1141.45 135.341 1145.41 136.262 1148.99 136.135C1152.64 136.092 1156.38 135.165 1158.59 124.523L1165.95 89.0328C1167.52 81.429 1169.1 77.4088 1170.27 75.2987C1171.31 77.421 1172.64 81.4533 1173.74 89.0691L1180.7 137.232C1184.24 161.754 1187.65 161.729 1191.66 161.747C1195.49 161.741 1199.09 161.729 1201.81 137.184L1208.89 73.3644C1210.3 60.7339 1211.77 53.8154 1212.96 50.0317C1214.09 53.8214 1215.47 60.74 1216.7 73.3765L1223.81 146.576C1226.89 178.453 1230.19 178.453 1234.37 178.453C1238.53 178.453 1241.84 178.404 1244.94 146.576L1250.97 84.764C1251.65 77.8879 1252.75 74.2861 1253.66 72.4185C1254.93 74.2558 1256.75 77.809 1258.77 84.6548L1263.5 100.657C1265.79 108.351 1269.5 109.461 1273.18 109.503C1276.97 109.503 1280.77 108.545 1284.41 100.924L1289.56 90.1545C1291.04 87.0803 1292.57 85.8009 1293.4 85.2915C1294.24 85.7948 1295.77 87.0803 1297.24 90.1545L1305.76 107.963C1307.58 111.783 1310.68 113.687 1315.23 113.778C1319.77 113.857 1323.39 112.105 1326.28 108.382L1331.79 101.281C1333.42 99.1893 1335.15 98.5526 1335.45 98.4981C1335.93 98.5526 1337.66 99.1893 1339.28 101.281L1342.68 105.671C1346.28 110.304 1350.04 112.293 1354.78 112.111C1359.55 111.935 1362.19 109.71 1363.34 104.901L1371.28 71.7272C1373.08 64.1902 1374.78 60.2125 1376.01 58.1266C1376.99 60.2306 1378.19 64.2387 1379.07 71.8L1386.03 132.018C1388.3 151.688 1392.06 151.712 1395.68 151.743C1399.28 151.743 1403.05 151.791 1407.12 132.163L1415.68 90.8337C1416.33 87.626 1417.53 86.2193 1418.25 85.6432C1419.24 86.1586 1421.1 87.4502 1423.34 90.5547L1433.47 104.61C1433.96 105.283 1435.82 105.677 1437.56 105.495C1439.31 105.283 1440.36 104.592 1439.88 103.919Z" fill="#085A46"/>
</svg>
